<svg xmlns="http://www.w3.org/2000/svg" viewBox="0 0 102 102"><defs><style>.cls-1,.cls-2{fill:none;}.cls-2,.cls-3{stroke:#4d4d4d;}.cls-2{stroke-linecap:round;stroke-linejoin:round;stroke-width:3.15px;}.cls-3{fill:#4d4d4d;stroke-miterlimit:10;stroke-width:0.34px;}</style></defs><title>アセット 2</title><g id="レイヤー_2" data-name="レイヤー 2"><g id="レイヤー_3" data-name="レイヤー 3"><rect class="cls-1" width="102" height="102"/><path class="cls-2" d="M80,43.44c-7.84-20.5-28.49-33-28.49-33S20,29.52,20,59.09A31.46,31.46,0,0,0,80.45,71.34"/><path class="cls-3" d="M39.83,69.66a12.32,12.32,0,0,1-7.06-1.84,7.1,7.1,0,0,1-3.13-6.2V60.09H33V62a3.83,3.83,0,0,0,2,3.44,8.71,8.71,0,0,0,4.76,1.15,9.82,9.82,0,0,0,4.62-1,3.36,3.36,0,0,0,2-3q0-3.83-6-3.83H37.46V55.74h2.92c3.64,0,5.46-1.06,5.46-3.2a2.58,2.58,0,0,0-1.74-2.36,9.18,9.18,0,0,0-4-.73q-3.51,0-5,1.35t-1.47,4.63H30.34q0-5.19,2.88-7.24A11.75,11.75,0,0,1,40,46.42a13.29,13.29,0,0,1,5.87,1.15,5.49,5.49,0,0,1,.7,9.67,5.84,5.84,0,0,1,3,5.39,6,6,0,0,1-3.3,5.46A12.62,12.62,0,0,1,39.83,69.66Z"/><path class="cls-3" d="M68.76,68.27A14.47,14.47,0,0,1,62,69.66a14.39,14.39,0,0,1-6.85-1.46,6.13,6.13,0,0,1-3.44-5.78,5.88,5.88,0,0,1,3.58-5.56,4.71,4.71,0,0,1-2.36-4.07A5.43,5.43,0,0,1,56,47.64a12.9,12.9,0,0,1,6-1.22,12.77,12.77,0,0,1,6,1.25,5.41,5.41,0,0,1,3.13,5.12,4.68,4.68,0,0,1-2.47,4.07,5.93,5.93,0,0,1,3.65,5.63A6.15,6.15,0,0,1,68.76,68.27ZM62,58.6c-4.65,0-7,1.28-7,3.86,0,2.78,2.31,4.17,6.95,4.17s7-1.39,7-4.17C68.93,59.88,66.63,58.6,62,58.6Zm0-9.15c-3.82,0-5.74,1.12-5.74,3.37,0,.84.62,1.52,1.85,2a10.16,10.16,0,0,0,3.92.7,9.84,9.84,0,0,0,4-.77c1.16-.51,1.74-1.19,1.74-2Q67.75,49.45,62,49.45Z"/><path class="cls-3" d="M78,60.41a3.29,3.29,0,0,1-2.66-1.07,4.29,4.29,0,0,1-.85-2.85q0-4,3.53-4t3.54,4a4.19,4.19,0,0,1-.88,2.85A3.34,3.34,0,0,1,78,60.41Zm-.27,5.72H75.3l11-14h2.42ZM78,54.28c-1,0-1.51.74-1.51,2.21S77,58.62,78,58.62s1.54-.71,1.54-2.13S79,54.28,78,54.28Zm7.62,12.2a3.31,3.31,0,0,1-2.68-1.08,4.35,4.35,0,0,1-.84-2.86q0-4,3.54-4c2.36,0,3.53,1.34,3.53,4a4.25,4.25,0,0,1-.87,2.86A3.28,3.28,0,0,1,85.62,66.48Zm0-6.15c-1,0-1.52.74-1.52,2.21s.51,2.14,1.54,2.14,1.53-.71,1.53-2.14S86.66,60.33,85.62,60.33Z"/></g></g></svg>