<svg xmlns="http://www.w3.org/2000/svg" xmlns:xlink="http://www.w3.org/1999/xlink" viewBox="0 0 102 102"><defs><style>.cls-1,.cls-4{fill:none;}.cls-2{clip-path:url(#clip-path);}.cls-3{fill:#4d4d4d;}.cls-4{stroke:#4d4d4d;stroke-linecap:round;stroke-linejoin:round;stroke-width:3.34px;}</style><clipPath id="clip-path"><path class="cls-1" d="M81,51c0,20.13-7.34,36.45-16.4,36.45S48.2,71.13,48.2,51s7.34-36.45,16.39-36.45S81,30.87,81,51Z"/></clipPath></defs><title>アセット 4</title><g id="レイヤー_2" data-name="レイヤー 2"><g id="レイヤー_3" data-name="レイヤー 3"><rect class="cls-1" width="102" height="102"/><g class="cls-2"><path class="cls-3" d="M76.28,72.5c0,.28-.11.5-.26.5s-.25-.22-.25-.5.11-.5.25-.5.26.22.26.5"/><path class="cls-3" d="M76.11,74c0,.3-.14.54-.29.54s-.28-.21-.29-.54.13-.56.28-.56.3.25.3.56"/><path class="cls-3" d="M75.94,75.43c0,.33-.16.6-.33.6s-.31-.21-.31-.6.14-.62.3-.62.34.28.34.62"/><path class="cls-3" d="M75.78,76.89c0,.36-.19.66-.38.66s-.34-.21-.34-.66.15-.67.33-.67.38.3.39.67"/><path class="cls-3" d="M75.61,78.35c0,.39-.22.71-.41.71s-.37-.2-.37-.71.16-.72.36-.72.42.33.42.72"/><path class="cls-3" d="M75.44,79.81c0,.43-.24.77-.45.77s-.39-.21-.4-.76S74.76,79,75,79s.46.35.46.77"/><path class="cls-3" d="M75.28,81.27c0,.46-.27.82-.5.82-.39,0-.42-.19-.42-.81,0-.45.18-.83.41-.83s.5.37.51.82"/><path class="cls-3" d="M75.11,82.74c0,.48-.29.87-.54.87-.43,0-.44-.2-.45-.87,0-.48.2-.88.44-.88s.54.39.55.88"/><path class="cls-3" d="M74.94,84.2c0,.51-.31.93-.57.93-.48,0-.48-.2-.48-.93,0-.5.21-.93.46-.93s.59.42.59.93"/><path class="cls-3" d="M74.77,85.66c0,.54-.34,1-.61,1-.52,0-.5-.2-.51-1,0-.54.22-1,.5-1s.62.44.62,1"/><path class="cls-3" d="M77.25,72.05c0,.29-.08.52-.22.54s-.27-.18-.28-.45.08-.52.23-.54.26.18.27.45"/><path class="cls-3" d="M77.15,73.54c0,.31-.1.57-.26.6s-.29-.17-.31-.51.1-.57.25-.59.31.2.32.5"/><path class="cls-3" d="M77.06,75c0,.34-.13.63-.31.66s-.31-.16-.33-.55.1-.62.27-.66.35.22.37.55"/><path class="cls-3" d="M77,76.51c0,.37-.16.69-.34.72s-.34-.16-.37-.6.11-.69.3-.72.39.23.41.6"/><path class="cls-3" d="M76.86,78c0,.39-.18.74-.38.77s-.37-.14-.39-.64.12-.74.32-.78.43.25.45.65"/><path class="cls-3" d="M76.76,79.48c0,.42-.2.8-.41.84s-.4-.14-.43-.7.13-.79.35-.83.47.27.49.69"/><path class="cls-3" d="M76.66,81c0,.45-.22.86-.44.89-.4.07-.43-.13-.47-.74s.15-.85.38-.89.51.28.53.74"/><path class="cls-3" d="M76.57,82.45c0,.48-.25.92-.49,1-.44.08-.45-.12-.49-.79,0-.49.15-.91.39-1s.56.3.59.78"/><path class="cls-3" d="M76.47,83.94c0,.5-.27,1-.53,1-.48.08-.47-.12-.52-.85,0-.51.16-1,.42-1s.6.31.63.83"/><path class="cls-3" d="M76.37,85.42c0,.54-.29,1-.56,1.08-.53.09-.51-.11-.55-.89,0-.55.17-1,.44-1.07s.64.34.67.88"/><path class="cls-3" d="M78.21,71.45c0,.27-.06.53-.2.58s-.28-.14-.3-.41.06-.53.2-.58.27.14.3.41"/><path class="cls-3" d="M78.18,73c0,.3-.08.58-.24.64s-.3-.13-.33-.45.07-.59.22-.64.32.15.35.45"/><path class="cls-3" d="M78.15,74.44c0,.34-.1.65-.27.71s-.32-.11-.36-.49.07-.65.24-.71.36.16.39.49"/><path class="cls-3" d="M78.12,75.94c0,.36-.12.71-.3.77s-.35-.1-.4-.54.08-.7.26-.76.4.17.44.53"/><path class="cls-3" d="M78.09,77.44a.86.86,0,0,1-.33.84c-.31.1-.38-.09-.43-.59s.09-.76.28-.82.44.18.48.57"/><path class="cls-3" d="M78.06,78.94a.92.92,0,0,1-.37.9c-.35.11-.4-.07-.46-.63s.09-.81.3-.88.49.19.53.61"/><path class="cls-3" d="M78,80.43a1,1,0,0,1-.4,1c-.39.13-.43-.06-.49-.67,0-.45.1-.87.32-1s.53.2.57.65"/><path class="cls-3" d="M78,81.93a1,1,0,0,1-.45,1c-.43.15-.45,0-.52-.71,0-.47.11-.93.35-1s.57.21.62.69"/><path class="cls-3" d="M78,83.42a1.16,1.16,0,0,1-.48,1.11c-.47.16-.48,0-.55-.76,0-.5.11-1,.36-1.07s.62.22.67.72"/><path class="cls-3" d="M78,84.92a1.21,1.21,0,0,1-.51,1.17c-.51.18-.51,0-.59-.8,0-.54.12-1.05.39-1.13s.66.23.71.76"/><path class="cls-3" d="M79.12,70.69c0,.27,0,.54-.17.61s-.27-.09-.31-.35a.65.65,0,0,1,.17-.62c.13-.07.28.1.31.36"/><path class="cls-3" d="M79.17,72.38a.68.68,0,0,1-.21.68c-.18.1-.3-.06-.35-.39A.71.71,0,0,1,78.8,72c.15-.08.32.1.37.4"/><path class="cls-3" d="M79.22,74.06a.82.82,0,0,1-.24.77c-.23.12-.34,0-.4-.44a.8.8,0,0,1,.21-.76c.17-.09.38.1.43.43"/><path class="cls-3" d="M79.26,75.74a.91.91,0,0,1-.27.86c-.28.13-.37,0-.44-.49a.88.88,0,0,1,.24-.83c.18-.1.42.1.47.46"/><path class="cls-3" d="M79.31,77.43a1,1,0,0,1-.31.93c-.32.16-.4,0-.47-.53a.94.94,0,0,1,.25-.9c.2-.11.47.1.53.5"/><path class="cls-3" d="M79.36,79.11a1.1,1.1,0,0,1-.35,1c-.36.19-.42,0-.51-.57a1,1,0,0,1,.28-1c.21-.11.51.11.58.54"/><path class="cls-3" d="M79.4,80.79a1.19,1.19,0,0,1-.38,1.1c-.41.21-.45,0-.55-.62-.06-.46.07-.93.3-1s.56.11.63.57"/><path class="cls-3" d="M79.45,82.48A1.26,1.26,0,0,1,79,83.65c-.46.24-.48,0-.59-.66a1.19,1.19,0,0,1,.32-1.12c.25-.13.62.12.69.61"/><path class="cls-3" d="M79.49,84.16A1.35,1.35,0,0,1,79,85.42c-.5.25-.5.06-.62-.71a1.21,1.21,0,0,1,.34-1.19c.26-.14.66.11.73.64"/><path class="cls-3" d="M80,69.79a.68.68,0,0,1-.14.64c-.13.08-.28-.05-.33-.31a.67.67,0,0,1,.14-.63c.14-.1.29,0,.33.3"/><path class="cls-3" d="M80.13,71.46a.8.8,0,0,1-.17.72c-.18.12-.31,0-.38-.34a.78.78,0,0,1,.16-.71c.15-.11.33,0,.39.33"/><path class="cls-3" d="M80.25,73.13a.88.88,0,0,1-.2.81c-.22.15-.34,0-.41-.38a.87.87,0,0,1,.17-.79c.17-.12.38,0,.44.36"/><path class="cls-3" d="M80.38,74.8a1,1,0,0,1-.24.9c-.26.18-.36,0-.45-.42a.94.94,0,0,1,.19-.86c.18-.13.43,0,.5.38"/><path class="cls-3" d="M80.5,76.48a1.08,1.08,0,0,1-.26,1c-.31.22-.39,0-.5-.45a1,1,0,0,1,.22-.94c.19-.13.47,0,.54.42"/><path class="cls-3" d="M80.63,78.14a1.22,1.22,0,0,1-.3,1.07c-.35.24-.42.07-.53-.49a1.08,1.08,0,0,1,.23-1c.21-.15.51,0,.6.44"/><path class="cls-3" d="M80.75,79.82A1.32,1.32,0,0,1,80.43,81c-.4.27-.45.09-.58-.53a1.16,1.16,0,0,1,.25-1.09c.23-.16.56,0,.65.47"/><path class="cls-3" d="M80.87,81.49a1.4,1.4,0,0,1-.35,1.24c-.44.3-.48.11-.62-.57A1.28,1.28,0,0,1,80.17,81c.24-.17.61,0,.7.5"/><path class="cls-3" d="M81,83.16a1.51,1.51,0,0,1-.39,1.33c-.48.33-.51.14-.65-.62a1.34,1.34,0,0,1,.28-1.24c.26-.18.66,0,.76.53"/><path class="cls-3" d="M80.84,68.75a.72.72,0,0,1-.11.65c-.13.11-.28,0-.35-.25a.77.77,0,0,1,.11-.66c.13-.11.28,0,.35.26"/><path class="cls-3" d="M81,70.4a.85.85,0,0,1-.14.74c-.16.15-.3,0-.38-.28a.81.81,0,0,1,.12-.74c.14-.12.33,0,.4.28"/><path class="cls-3" d="M81.24,72a1,1,0,0,1-.16.83c-.21.19-.34.06-.43-.31a.91.91,0,0,1,.14-.82c.15-.13.37,0,.45.3"/><path class="cls-3" d="M81.44,73.69a1.06,1.06,0,0,1-.19.92c-.25.23-.36.08-.47-.34a1,1,0,0,1,.16-.9c.16-.15.42,0,.5.32"/><path class="cls-3" d="M81.65,75.33a1.2,1.2,0,0,1-.23,1c-.29.26-.38.11-.51-.38a1.09,1.09,0,0,1,.17-1c.18-.16.47,0,.57.33"/><path class="cls-3" d="M81.85,77a1.29,1.29,0,0,1-.25,1.11c-.34.3-.42.13-.56-.41a1.18,1.18,0,0,1,.19-1.05c.2-.18.52,0,.62.35"/><path class="cls-3" d="M82.05,78.62a1.44,1.44,0,0,1-.27,1.2c-.39.34-.45.17-.6-.43a1.28,1.28,0,0,1,.19-1.13c.22-.19.57-.07.68.36"/><path class="cls-3" d="M82.25,80.27a1.53,1.53,0,0,1-.3,1.29c-.42.38-.47.19-.64-.47a1.33,1.33,0,0,1,.21-1.2c.23-.21.62-.08.73.38"/><path class="cls-3" d="M82.46,81.91a1.69,1.69,0,0,1-.33,1.38c-.47.42-.5.23-.68-.49a1.39,1.39,0,0,1,.22-1.28c.25-.22.66-.1.79.39"/><path class="cls-3" d="M81.62,67.57a.78.78,0,0,1-.08.67c-.12.13-.28.05-.36-.2a.83.83,0,0,1,.08-.67c.13-.13.28,0,.36.2"/><path class="cls-3" d="M81.89,69.18a.84.84,0,0,1-.1.76c-.16.18-.3.08-.39-.21a.84.84,0,0,1,.09-.76c.13-.15.32-.06.4.21"/><path class="cls-3" d="M82.17,70.79a1,1,0,0,1-.12.86c-.21.22-.33.11-.44-.25a1,1,0,0,1,.1-.83c.15-.16.37-.08.46.22"/><path class="cls-3" d="M82.45,72.39a1.1,1.1,0,0,1-.15,1c-.24.26-.35.14-.48-.27a1.06,1.06,0,0,1,.11-.91c.17-.18.42-.1.52.22"/><path class="cls-3" d="M82.73,74a1.26,1.26,0,0,1-.17,1c-.29.31-.38.17-.53-.29a1.13,1.13,0,0,1,.12-1c.18-.19.47-.13.58.23"/><path class="cls-3" d="M83,75.61a1.38,1.38,0,0,1-.2,1.15c-.32.35-.4.2-.57-.32a1.23,1.23,0,0,1,.14-1.08c.19-.2.51-.14.63.25"/><path class="cls-3" d="M83.29,77.22a1.54,1.54,0,0,1-.22,1.24c-.37.4-.43.24-.61-.34A1.3,1.3,0,0,1,82.6,77c.21-.23.56-.17.69.25"/><path class="cls-3" d="M83.56,78.82a1.61,1.61,0,0,1-.24,1.34c-.4.45-.45.27-.65-.36a1.4,1.4,0,0,1,.15-1.24c.22-.24.6-.18.74.26"/><path class="cls-3" d="M83.84,80.44a1.73,1.73,0,0,1-.26,1.42c-.45.49-.48.31-.7-.38A1.5,1.5,0,0,1,83,80.16c.24-.26.65-.2.8.28"/><path class="cls-3" d="M82.34,66.27a.76.76,0,0,1,0,.68c-.11.15-.27.09-.36-.13a.78.78,0,0,1,0-.69c.11-.15.28-.08.36.14"/><path class="cls-3" d="M82.69,67.82a.94.94,0,0,1-.06.78c-.16.21-.3.13-.41-.15a.86.86,0,0,1,.06-.76c.12-.17.32-.11.41.13"/><path class="cls-3" d="M83,69.38a1.05,1.05,0,0,1-.08.88c-.19.25-.32.17-.45-.17a1,1,0,0,1,.06-.84c.14-.19.37-.14.47.13"/><path class="cls-3" d="M83.39,70.94a1.17,1.17,0,0,1-.1,1c-.23.3-.34.2-.49-.19a1.06,1.06,0,0,1,.07-.93c.15-.2.41-.17.52.14"/><path class="cls-3" d="M83.75,72.5a1.41,1.41,0,0,1-.12,1.08c-.27.35-.37.23-.54-.21a1.17,1.17,0,0,1,.07-1c.17-.22.46-.19.59.14"/><path class="cls-3" d="M84.1,74.06A1.45,1.45,0,0,1,84,75.23c-.31.41-.4.27-.58-.22a1.24,1.24,0,0,1,.08-1.09c.18-.24.5-.23.64.14"/><path class="cls-3" d="M84.45,75.61a1.59,1.59,0,0,1-.16,1.28c-.34.46-.42.31-.62-.24a1.4,1.4,0,0,1,.08-1.18.39.39,0,0,1,.7.14"/><path class="cls-3" d="M84.8,77.17a1.74,1.74,0,0,1-.17,1.38c-.39.51-.45.34-.67-.25A1.49,1.49,0,0,1,84.05,77a.41.41,0,0,1,.75.14"/><path class="cls-3" d="M85.15,78.73A1.91,1.91,0,0,1,85,80.21c-.42.55-.47.37-.71-.27a1.56,1.56,0,0,1,.1-1.35.44.44,0,0,1,.8.14"/><path class="cls-3" d="M83,64.85a.82.82,0,0,1,0,.69c-.1.17-.27.14-.36-.07a.85.85,0,0,1,0-.7c.11-.17.27-.13.37.08"/><path class="cls-3" d="M83.48,66.56a1,1,0,0,1,0,.81c-.15.23-.3.18-.42-.09a1,1,0,0,1,0-.79c.12-.19.32-.17.43.07"/><path class="cls-3" d="M84,68.27a1.16,1.16,0,0,1,0,.92c-.19.3-.32.23-.47-.1a1,1,0,0,1,0-.88c.14-.21.37-.21.5.06"/><path class="cls-3" d="M84.45,70a1.26,1.26,0,0,1-.06,1c-.23.37-.35.28-.52-.11a1.13,1.13,0,0,1,0-1c.15-.24.42-.25.56,0"/><path class="cls-3" d="M84.93,71.69a1.43,1.43,0,0,1-.08,1.15c-.27.43-.36.32-.57-.12a1.25,1.25,0,0,1,0-1.07.33.33,0,0,1,.62,0"/><path class="cls-3" d="M85.41,73.4a1.59,1.59,0,0,1-.09,1.27c-.31.5-.39.36-.62-.14a1.38,1.38,0,0,1,0-1.16c.18-.28.52-.33.68,0"/><path class="cls-3" d="M85.9,75.11a1.85,1.85,0,0,1-.11,1.39c-.35.56-.42.4-.67-.15a1.46,1.46,0,0,1,0-1.26c.19-.3.57-.37.75,0"/><path class="cls-3" d="M86.38,76.82a1.94,1.94,0,0,1-.12,1.5c-.4.63-.45.45-.73-.15a1.61,1.61,0,0,1,0-1.36c.21-.33.62-.41.81,0"/><path class="cls-3" d="M83.59,63.34a.83.83,0,0,1,0,.69c-.11.18-.27.17-.37,0a.78.78,0,0,1,0-.68c.1-.2.26-.19.37,0"/><path class="cls-3" d="M84.15,65a1,1,0,0,1,0,.81c-.14.26-.29.23-.43,0a.93.93,0,0,1,0-.78c.11-.22.31-.23.43,0"/><path class="cls-3" d="M84.71,66.59a1.16,1.16,0,0,1,0,.93c-.18.32-.32.27-.47,0a1,1,0,0,1,0-.87c.13-.24.36-.28.5,0"/><path class="cls-3" d="M85.27,68.21a1.32,1.32,0,0,1,0,1.05c-.22.4-.34.32-.52,0a1.14,1.14,0,0,1,0-1c.14-.27.41-.32.56-.05"/><path class="cls-3" d="M85.83,69.84a1.46,1.46,0,0,1,0,1.16c-.25.48-.36.38-.58,0a1.29,1.29,0,0,1,0-1.07c.15-.29.46-.37.62-.07"/><path class="cls-3" d="M86.39,71.46a1.7,1.7,0,0,1,0,1.29c-.29.54-.38.42-.62,0a1.37,1.37,0,0,1,0-1.17c.16-.31.5-.41.68-.09"/><path class="cls-3" d="M87,73.09a1.76,1.76,0,0,1,0,1.39c-.33.62-.4.48-.67,0a1.47,1.47,0,0,1,0-1.26c.18-.34.55-.46.74-.11"/><path class="cls-3" d="M87.51,74.72a2,2,0,0,1-.05,1.51c-.37.69-.42.53-.73,0a1.6,1.6,0,0,1,0-1.35c.18-.38.6-.51.8-.13"/><path class="cls-3" d="M84.11,61.73a.83.83,0,0,1,0,.69c-.08.2-.25.21-.37,0a.81.81,0,0,1,0-.68c.08-.2.25-.22.37,0"/><path class="cls-3" d="M84.74,63.26a1,1,0,0,1,0,.8c-.12.29-.27.27-.42,0a.92.92,0,0,1,0-.78c.1-.23.3-.27.43-.07"/><path class="cls-3" d="M85.37,64.79a1.13,1.13,0,0,1,0,.92c-.16.36-.29.33-.47.05a1,1,0,0,1-.06-.87c.11-.26.35-.33.49-.1"/><path class="cls-3" d="M86,66.31a1.32,1.32,0,0,1,0,1c-.19.44-.32.38-.52.06a1.14,1.14,0,0,1-.07-1c.13-.29.4-.38.56-.14"/><path class="cls-3" d="M86.64,67.84a1.46,1.46,0,0,1,0,1.16c-.23.52-.33.44-.57.07A1.23,1.23,0,0,1,86,68c.13-.31.43-.44.61-.17"/><path class="cls-3" d="M87.28,69.37a1.67,1.67,0,0,1,0,1.28c-.26.6-.36.49-.62.08a1.35,1.35,0,0,1-.08-1.16c.15-.34.48-.49.68-.2"/><path class="cls-3" d="M87.91,70.9a1.83,1.83,0,0,1,0,1.4c-.3.67-.38.54-.67.08a1.44,1.44,0,0,1-.09-1.25c.16-.37.53-.55.74-.23"/><path class="cls-3" d="M88.54,72.43a2,2,0,0,1,0,1.52c-.33.75-.4.59-.72.09a1.53,1.53,0,0,1-.09-1.35c.17-.4.57-.6.79-.26"/><path class="cls-3" d="M84.54,60a.75.75,0,0,1,.08.67c-.08.22-.24.27-.37.1a.78.78,0,0,1-.07-.66c.07-.22.24-.27.36-.11"/><path class="cls-3" d="M85.36,61.7a.94.94,0,0,1,.08.81c-.11.32-.26.33-.42.12a.91.91,0,0,1-.09-.78c.09-.25.29-.34.43-.15"/><path class="cls-3" d="M86.18,63.36a1.14,1.14,0,0,1,.08,1c-.15.41-.28.39-.48.14a1.07,1.07,0,0,1-.1-.9c.1-.28.34-.4.5-.19"/><path class="cls-3" d="M87,65a1.36,1.36,0,0,1,.08,1.09c-.19.51-.3.46-.54.15a1.19,1.19,0,0,1-.11-1c.12-.32.39-.48.57-.24"/><path class="cls-3" d="M87.82,66.68a1.56,1.56,0,0,1,.08,1.23c-.22.6-.32.52-.59.17A1.31,1.31,0,0,1,87.18,67c.13-.35.44-.55.64-.28"/><path class="cls-3" d="M88.64,68.34a1.71,1.71,0,0,1,.08,1.36c-.25.71-.34.59-.65.19a1.4,1.4,0,0,1-.14-1.22c.14-.39.49-.62.71-.33"/><path class="cls-3" d="M89.46,70a2,2,0,0,1,.09,1.5c-.3.8-.37.65-.72.21a1.54,1.54,0,0,1-.15-1.33c.15-.43.54-.7.78-.38"/><path class="cls-3" d="M84.9,58.29A.73.73,0,0,1,85,59c-.07.22-.23.3-.36.16a.75.75,0,0,1-.11-.66c.07-.23.23-.3.36-.16"/><path class="cls-3" d="M85.8,59.81a1,1,0,0,1,.11.79c-.1.33-.24.38-.41.2a.88.88,0,0,1-.13-.77c.08-.27.27-.38.43-.22"/><path class="cls-3" d="M86.69,61.32a1.15,1.15,0,0,1,.12.94c-.13.43-.26.44-.47.22a1,1,0,0,1-.14-.88c.09-.3.32-.46.49-.28"/><path class="cls-3" d="M87.58,62.85a1.36,1.36,0,0,1,.14,1.07c-.17.54-.29.51-.54.24a1.12,1.12,0,0,1-.16-1c.11-.33.37-.54.56-.33"/><path class="cls-3" d="M88.47,64.36a1.52,1.52,0,0,1,.15,1.22c-.2.64-.3.58-.59.27a1.2,1.2,0,0,1-.18-1.09c.11-.37.41-.62.62-.4"/><path class="cls-3" d="M89.37,65.89a1.7,1.7,0,0,1,.14,1.35c-.22.74-.31.64-.64.29a1.37,1.37,0,0,1-.2-1.19c.13-.41.46-.7.7-.45"/><path class="cls-3" d="M90.26,67.4a1.93,1.93,0,0,1,.16,1.5c-.26.84-.34.71-.71.31a1.45,1.45,0,0,1-.21-1.29c.13-.45.5-.78.76-.52"/><path class="cls-3" d="M85.17,56.48a.68.68,0,0,1,.14.64c0,.24-.21.34-.34.22a.68.68,0,0,1-.14-.64c.06-.24.21-.34.34-.22"/><path class="cls-3" d="M86,57.65a.89.89,0,0,1,.15.76c-.08.32-.23.4-.4.25a.83.83,0,0,1-.16-.73c.07-.27.25-.41.41-.28"/><path class="cls-3" d="M86.82,58.83a1,1,0,0,1,.17.88c-.11.41-.24.45-.45.28a.93.93,0,0,1-.18-.82c.08-.31.29-.49.46-.34"/><path class="cls-3" d="M87.64,60a1.15,1.15,0,0,1,.18,1c-.13.52-.25.52-.49.31a1,1,0,0,1-.2-.9c.08-.34.32-.56.51-.4"/><path class="cls-3" d="M88.47,61.18a1.38,1.38,0,0,1,.18,1.11c-.15.6-.26.58-.53.34a1.08,1.08,0,0,1-.22-1c.08-.37.35-.63.57-.45"/><path class="cls-3" d="M89.29,62.35a1.5,1.5,0,0,1,.2,1.23c-.18.69-.27.64-.59.37a1.21,1.21,0,0,1-.24-1.08c.1-.41.4-.72.63-.52"/><path class="cls-3" d="M90.11,63.53a1.63,1.63,0,0,1,.21,1.34c-.19.79-.28.7-.63.4a1.27,1.27,0,0,1-.26-1.17c.1-.44.43-.79.68-.57"/><path class="cls-3" d="M90.94,64.7a1.87,1.87,0,0,1,.22,1.46c-.22.88-.3.77-.69.43a1.38,1.38,0,0,1-.27-1.26c.11-.46.47-.86.74-.63"/><path class="cls-3" d="M85.36,54.63a.61.61,0,0,1,.17.61c0,.25-.19.38-.33.29A.66.66,0,0,1,85,54.9c0-.24.2-.36.33-.27"/><path class="cls-3" d="M86.24,55.67a.77.77,0,0,1,.18.73c-.06.34-.2.44-.38.31a.71.71,0,0,1-.19-.7c.05-.28.23-.45.39-.34"/><path class="cls-3" d="M87.12,56.7a1,1,0,0,1,.2.85c-.09.44-.22.5-.43.35a.81.81,0,0,1-.22-.78c.06-.32.26-.53.45-.42"/><path class="cls-3" d="M88,57.74c.21.13.29.61.23,1-.1.54-.23.56-.48.39a.93.93,0,0,1-.24-.87c.07-.35.3-.61.49-.48"/><path class="cls-3" d="M88.86,58.78c.22.14.31.69.24,1.07-.12.63-.23.63-.52.43a1,1,0,0,1-.27-1c.07-.38.33-.7.55-.55"/><path class="cls-3" d="M89.73,59.81A1.41,1.41,0,0,1,90,61c-.14.73-.25.69-.57.47a1.1,1.1,0,0,1-.29-1c.08-.41.37-.77.6-.62"/><path class="cls-3" d="M90.61,60.85c.25.17.35.86.27,1.3-.15.83-.25.76-.62.51A1.23,1.23,0,0,1,90,61.54c.09-.45.4-.86.66-.69"/><path class="cls-3" d="M91.48,61.89c.27.18.38.93.29,1.42-.17.92-.26.81-.66.54a1.29,1.29,0,0,1-.33-1.21c.09-.48.42-.93.7-.75"/><path class="cls-3" d="M85.46,52.76a.57.57,0,0,1,.2.59c0,.25-.17.41-.32.33a.61.61,0,0,1-.2-.59c0-.26.18-.4.32-.33"/><path class="cls-3" d="M86.27,53.54a.72.72,0,0,1,.22.69c0,.33-.19.46-.36.37a.67.67,0,0,1-.23-.66c0-.29.21-.48.37-.4"/><path class="cls-3" d="M87.07,54.32c.18.09.28.46.24.78s-.19.52-.4.41a.71.71,0,0,1-.24-.73c0-.32.22-.55.4-.46"/><path class="cls-3" d="M87.88,55.1c.19.1.3.53.26.88-.08.51-.2.57-.45.45a.82.82,0,0,1-.26-.8c0-.35.25-.63.45-.53"/><path class="cls-3" d="M88.68,55.88c.21.1.33.6.28,1-.08.6-.21.63-.48.49a.9.9,0,0,1-.29-.87c0-.38.28-.71.49-.6"/><path class="cls-3" d="M89.48,56.66c.23.11.36.67.3,1.08-.09.68-.21.68-.52.52a1,1,0,0,1-.31-.94c.06-.4.3-.77.53-.66"/><path class="cls-3" d="M90.28,57.44c.25.12.38.74.32,1.18-.1.76-.21.73-.55.56a1,1,0,0,1-.34-1c.06-.44.33-.85.57-.73"/><path class="cls-3" d="M91.09,58.22c.26.13.4.8.34,1.27-.12.85-.22.8-.6.61A1.1,1.1,0,0,1,90.47,59c.06-.47.36-.93.62-.8"/><path class="cls-3" d="M91.89,59c.28.14.43.88.36,1.37-.13.94-.22.85-.64.64a1.14,1.14,0,0,1-.38-1.14c.07-.5.38-1,.66-.87"/><path class="cls-3" d="M85.48,50.87c.15.05.24.3.22.56s-.16.43-.3.38-.25-.29-.23-.55.16-.43.31-.39"/><path class="cls-3" d="M86.32,51.52c.16,0,.27.36.24.65s-.16.49-.34.43S86,52.27,86,52s.18-.51.35-.46"/><path class="cls-3" d="M87.15,52.17c.19.06.3.42.27.74s-.16.54-.37.48-.31-.37-.28-.69.2-.59.38-.53"/><path class="cls-3" d="M88,52.82c.2.06.33.48.29.83,0,.53-.16.6-.42.52s-.33-.4-.3-.75.23-.67.43-.6"/><path class="cls-3" d="M88.82,53.46c.22.07.36.55.32.93,0,.61-.17.66-.45.57s-.36-.44-.33-.82.25-.75.46-.68"/><path class="cls-3" d="M89.66,54.11c.23.07.38.61.35,1-.07.69-.18.71-.49.61s-.4-.48-.36-.89.26-.83.5-.75"/><path class="cls-3" d="M90.49,54.75c.26.08.41.68.38,1.13-.07.78-.18.77-.53.65s-.42-.5-.39-1,.29-.91.54-.83"/><path class="cls-3" d="M91.33,55.4c.27.09.44.74.4,1.22-.08.87-.18.82-.57.7s-.45-.54-.41-1,.31-1,.58-.9"/><path class="cls-3" d="M92.17,56.05c.28.09.46.8.42,1.31-.09,1-.19.88-.6.75s-.48-.59-.44-1.09.33-1.07.62-1"/><path class="cls-3" d="M85.41,49c.14,0,.26.25.24.52s-.13.45-.28.43-.26-.26-.25-.53.14-.44.29-.42"/><path class="cls-3" d="M86.17,49.45c.16,0,.29.3.27.6s-.13.51-.31.47-.29-.28-.27-.57.15-.52.31-.5"/><path class="cls-3" d="M86.94,49.9c.18,0,.31.36.3.68s-.14.56-.35.52-.32-.31-.3-.63.17-.59.35-.57"/><path class="cls-3" d="M87.71,50.35c.19,0,.33.41.32.76s-.14.61-.38.57-.34-.34-.32-.69.18-.67.38-.64"/><path class="cls-3" d="M88.47,50.81c.21,0,.37.46.35.83,0,.57-.14.66-.41.62s-.37-.37-.35-.74.2-.75.41-.71"/><path class="cls-3" d="M89.24,51.26c.23,0,.39.51.37.92,0,.64-.14.7-.43.65s-.41-.39-.38-.79.21-.82.44-.78"/><path class="cls-3" d="M90,51.71c.25,0,.42.56.41,1,0,.73-.14.77-.47.71s-.43-.41-.41-.85.23-.89.47-.85"/><path class="cls-3" d="M90.77,52.16c.26,0,.45.62.43,1.08,0,.81-.14.81-.5.75s-.46-.44-.44-.91.26-1,.51-.92"/><path class="cls-3" d="M91.54,52.61c.27,0,.47.67.45,1.16,0,.89-.14.86-.53.8s-.48-.47-.46-1,.26-1,.54-1"/><path class="cls-3" d="M92.3,53.06c.3,0,.51.73.48,1.24,0,1-.14.92-.56.85s-.51-.5-.49-1S92,53,92.3,53.06"/><path class="cls-3" d="M85.25,47.14c.14,0,.26.21.27.46s-.12.48-.27.48-.26-.21-.27-.47.12-.47.27-.47"/><path class="cls-3" d="M86,47.46c.16,0,.3.26.3.54s-.11.54-.29.54-.3-.24-.3-.53.13-.55.29-.55"/><path class="cls-3" d="M86.82,47.78c.17,0,.32.31.32.63S87,49,86.82,49s-.32-.26-.33-.58.14-.63.33-.63"/><path class="cls-3" d="M87.6,48.11c.19,0,.35.36.36.7,0,.5-.11.63-.35.63s-.36-.28-.36-.63.15-.7.35-.7"/><path class="cls-3" d="M88.38,48.44c.21,0,.39.4.39.77,0,.58-.11.68-.38.68s-.38-.3-.39-.67.17-.78.38-.78"/><path class="cls-3" d="M89.17,48.76c.22,0,.41.46.41.85,0,.66-.1.73-.4.74s-.42-.33-.42-.73.18-.86.41-.86"/><path class="cls-3" d="M90,49.09c.24,0,.44.5.44.92,0,.75-.1.79-.43.79s-.45-.35-.45-.78.2-.93.44-.93"/><path class="cls-3" d="M90.73,49.41c.26,0,.47.55.48,1,0,.81-.1.83-.46.83s-.48-.37-.48-.83.2-1,.46-1"/><path class="cls-3" d="M91.52,49.74c.27,0,.5.6.5,1.08,0,.9-.1.88-.49.89s-.51-.4-.51-.88.22-1.09.5-1.09"/><path class="cls-3" d="M92.3,50.07c.29,0,.53.64.53,1.15,0,1-.09.93-.52.94s-.53-.42-.53-.93.23-1.16.52-1.16"/><path class="cls-3" d="M85,45.3c.14,0,.28.17.29.43s-.09.5-.24.52-.28-.17-.29-.42.09-.5.24-.53"/><path class="cls-3" d="M85.8,45.5c.16,0,.31.21.32.5s-.09.54-.27.57-.31-.18-.33-.47.11-.57.28-.6"/><path class="cls-3" d="M86.59,45.7c.18,0,.34.25.36.57s-.09.6-.3.63-.34-.21-.35-.52.11-.65.29-.68"/><path class="cls-3" d="M87.39,45.9c.19,0,.37.29.39.64s-.08.64-.32.68-.37-.22-.39-.56.12-.73.32-.76"/><path class="cls-3" d="M88.18,46.09c.21,0,.4.34.42.71,0,.58-.07.7-.34.75s-.4-.25-.42-.62.13-.8.34-.84"/><path class="cls-3" d="M89,46.29c.22,0,.43.38.45.78,0,.66-.07.75-.37.8s-.43-.26-.45-.66.14-.88.37-.92"/><path class="cls-3" d="M89.77,46.49c.25,0,.47.42.49.85,0,.73-.07.8-.4.85s-.46-.27-.48-.7.15-1,.39-1"/><path class="cls-3" d="M90.57,46.69c.26,0,.5.46.52.92,0,.81-.07.85-.43.91s-.48-.3-.51-.76.16-1,.42-1.07"/><path class="cls-3" d="M91.36,46.88c.28,0,.53.51.56,1,0,.89-.06.89-.46,1s-.51-.31-.54-.8.17-1.11.44-1.16"/><path class="cls-3" d="M92.16,47.08c.29,0,.55.55.58,1.07.05,1,0,.94-.47,1s-.55-.32-.58-.84.18-1.19.47-1.24"/><path class="cls-3" d="M84.67,43.52c.14-.05.28.12.31.38s-.07.51-.22.56-.29-.13-.31-.38.07-.51.22-.56"/><path class="cls-3" d="M85.47,43.59c.16-.06.32.16.34.44s-.06.56-.23.62-.32-.14-.35-.43.08-.58.24-.63"/><path class="cls-3" d="M86.27,43.66c.18-.07.35.19.38.5s-.05.61-.26.68-.35-.15-.38-.46.08-.67.26-.72"/><path class="cls-3" d="M87.07,43.72c.19-.06.38.24.42.58.05.49,0,.65-.29.73s-.38-.16-.41-.5.09-.74.28-.81"/><path class="cls-3" d="M87.87,43.79c.21-.07.42.27.46.64,0,.57,0,.7-.31.8s-.41-.18-.45-.55.1-.82.3-.89"/><path class="cls-3" d="M88.67,43.86c.23-.08.46.3.5.7.06.65,0,.76-.34.86s-.44-.19-.48-.59.1-.9.32-1"/><path class="cls-3" d="M89.47,43.92c.24-.08.49.35.53.77.07.73,0,.81-.36.92s-.46-.2-.51-.63.1-1,.34-1.06"/><path class="cls-3" d="M90.27,44c.26-.08.52.38.57.84.08.8,0,.85-.38,1s-.51-.22-.55-.67.11-1.05.36-1.14"/><path class="cls-3" d="M91.07,44.06c.28-.09.56.42.6.9.09.88,0,.9-.4,1s-.53-.23-.58-.71.12-1.13.38-1.22"/><path class="cls-3" d="M91.88,44.13c.28-.1.58.45.64,1,.09,1,0,.95-.43,1.09s-.57-.24-.62-.75.12-1.21.41-1.3"/><path class="cls-3" d="M84.25,41.79c.14-.07.29.08.34.33a.59.59,0,0,1-.2.59c-.14.07-.29-.07-.32-.32a.62.62,0,0,1,.18-.6"/><path class="cls-3" d="M85.15,41.72c.17-.08.34.11.38.4s0,.57-.21.66-.33-.09-.38-.37,0-.61.21-.69"/><path class="cls-3" d="M86.05,41.65c.18-.09.37.15.42.46s0,.63-.23.73-.37-.09-.41-.4,0-.7.22-.79"/><path class="cls-3" d="M87,41.58c.19-.1.4.18.45.53.08.51,0,.68-.26.8s-.39-.1-.44-.45.05-.78.25-.88"/><path class="cls-3" d="M87.86,41.51c.21-.11.44.22.5.6.09.59,0,.73-.28.87s-.43-.11-.49-.49,0-.87.27-1"/><path class="cls-3" d="M88.76,41.44c.22-.12.48.25.54.66.1.68,0,.79-.3.94s-.47-.12-.53-.52.06-1,.29-1.08"/><path class="cls-3" d="M89.66,41.36c.24-.12.52.29.58.73.12.77,0,.85-.32,1s-.5-.13-.57-.57.06-1,.31-1.18"/><path class="cls-3" d="M90.56,41.29c.26-.13.56.33.63.8.12.85,0,.9-.35,1.08s-.53-.13-.6-.6.05-1.14.32-1.28"/><path class="cls-3" d="M91.46,41.22c.28-.14.6.36.67.86.14.94,0,1-.37,1.16s-.57-.14-.64-.64.06-1.23.34-1.38"/><path class="cls-3" d="M83.76,40.14c.14-.1.29,0,.34.28a.63.63,0,0,1-.16.61c-.13.1-.28,0-.34-.27a.65.65,0,0,1,.16-.62"/><path class="cls-3" d="M84.65,39.93c.16-.11.34,0,.39.33a.64.64,0,0,1-.18.69c-.15.11-.32,0-.38-.31a.77.77,0,0,1,.17-.71"/><path class="cls-3" d="M85.55,39.71c.17-.13.37.08.43.39s0,.62-.2.76-.36,0-.42-.33a.92.92,0,0,1,.19-.82"/><path class="cls-3" d="M86.44,39.49c.19-.13.41.12.48.45.1.5,0,.68-.22.84s-.39,0-.46-.37a1,1,0,0,1,.2-.92"/><path class="cls-3" d="M87.33,39.27c.21-.14.45.15.53.51.12.58,0,.73-.24.92s-.43,0-.5-.41a1.18,1.18,0,0,1,.21-1"/><path class="cls-3" d="M88.22,39.05c.23-.15.5.18.58.57.13.66,0,.79-.26,1s-.46,0-.54-.43a1.35,1.35,0,0,1,.22-1.13"/><path class="cls-3" d="M89.12,38.83c.24-.16.53.21.62.63.15.75.05.84-.28,1.07s-.5-.05-.58-.47a1.45,1.45,0,0,1,.24-1.23"/><path class="cls-3" d="M90,38.61c.26-.17.58.24.67.7.17.82.07.89-.3,1.13s-.53,0-.62-.5A1.61,1.61,0,0,1,90,38.61"/><path class="cls-3" d="M90.9,38.4c.28-.18.62.26.72.75.18.91.08.94-.32,1.21s-.57,0-.67-.54a1.76,1.76,0,0,1,.27-1.42"/><path class="cls-3" d="M83.2,38.58c.13-.12.29,0,.35.21a.73.73,0,0,1-.13.65c-.14.11-.29,0-.36-.22a.71.71,0,0,1,.14-.64"/><path class="cls-3" d="M84.08,38.21c.14-.13.33,0,.39.27a.71.71,0,0,1-.14.72c-.15.13-.33,0-.4-.24a.82.82,0,0,1,.15-.75"/><path class="cls-3" d="M85,37.85c.16-.15.37,0,.44.32s0,.62-.16.79-.36,0-.44-.26a1,1,0,0,1,.16-.85"/><path class="cls-3" d="M85.83,37.49c.18-.16.42,0,.5.37.12.48,0,.67-.18.87s-.4,0-.48-.29a1.14,1.14,0,0,1,.16-.95"/><path class="cls-3" d="M86.71,37.12c.2-.17.46.07.55.43.14.56.06.72-.2,1s-.43,0-.52-.33a1.26,1.26,0,0,1,.17-1.05"/><path class="cls-3" d="M87.59,36.76c.21-.19.5.1.6.47.16.64.08.78-.22,1s-.46,0-.56-.35a1.42,1.42,0,0,1,.18-1.16"/><path class="cls-3" d="M88.47,36.4c.23-.2.54.12.64.52.19.73.1.83-.23,1.11s-.5,0-.6-.37a1.53,1.53,0,0,1,.19-1.26"/><path class="cls-3" d="M89.35,36c.25-.21.58.15.69.58.2.8.11.88-.24,1.19s-.54,0-.65-.4a1.71,1.71,0,0,1,.2-1.37"/><path class="cls-3" d="M90.23,35.67c.26-.22.62.17.74.63.23.88.12.93-.26,1.27s-.57,0-.69-.43a1.86,1.86,0,0,1,.21-1.47"/><path class="cls-3" d="M82.56,37.1c.13-.13.29-.06.36.16a.77.77,0,0,1-.1.67c-.13.13-.29.06-.36-.16a.73.73,0,0,1,.1-.67"/><path class="cls-3" d="M83.42,36.6c.14-.16.33-.05.41.2a.79.79,0,0,1-.11.75c-.15.15-.33.07-.41-.19a.86.86,0,0,1,.11-.76"/><path class="cls-3" d="M84.28,36.09c.15-.17.37,0,.46.25a.76.76,0,0,1-.13.83c-.15.17-.36.08-.45-.2a1.05,1.05,0,0,1,.12-.88"/><path class="cls-3" d="M85.13,35.59c.18-.19.42,0,.52.29a.79.79,0,0,1-.14.9c-.17.19-.39.09-.49-.21a1.2,1.2,0,0,1,.11-1"/><path class="cls-3" d="M86,35.09c.19-.21.46,0,.56.33.17.53.1.71-.14,1s-.43.1-.54-.24A1.29,1.29,0,0,1,86,35.09"/><path class="cls-3" d="M86.85,34.58c.2-.22.5,0,.61.38.19.61.12.75-.16,1.06s-.46.11-.58-.26a1.47,1.47,0,0,1,.13-1.18"/><path class="cls-3" d="M87.71,34.08c.22-.24.54,0,.66.42.22.68.13.8-.17,1.14s-.5.12-.62-.27a1.6,1.6,0,0,1,.13-1.29"/><path class="cls-3" d="M88.57,33.57c.23-.25.58,0,.71.47.24.76.15.85-.19,1.22s-.53.12-.66-.3a1.76,1.76,0,0,1,.14-1.39"/><path class="cls-3" d="M89.42,33.07c.25-.27.63.06.77.5.27.84.16.9-.2,1.31s-.56.13-.7-.32a1.87,1.87,0,0,1,.13-1.49"/><path class="cls-3" d="M81.86,35.74c.12-.16.28-.11.36.1a.8.8,0,0,1-.07.68c-.12.16-.28.11-.36-.1a.8.8,0,0,1,.07-.68"/><path class="cls-3" d="M82.69,35.1c.13-.18.32-.11.42.13A.8.8,0,0,1,83,36c-.14.18-.32.13-.41-.1a.93.93,0,0,1,.07-.79"/><path class="cls-3" d="M83.52,34.46c.15-.2.37-.1.47.17a.78.78,0,0,1-.09.84c-.15.19-.35.14-.45-.12a1.09,1.09,0,0,1,.07-.89"/><path class="cls-3" d="M84.35,33.81c.16-.21.41-.08.53.21a.83.83,0,0,1-.1.92c-.17.22-.39.16-.5-.13a1.23,1.23,0,0,1,.07-1"/><path class="cls-3" d="M85.18,33.18c.18-.25.46-.08.57.23a.83.83,0,0,1-.1,1c-.18.24-.42.18-.54-.14a1.35,1.35,0,0,1,.07-1.09"/><path class="cls-3" d="M86,32.53c.19-.26.5-.07.63.27.22.58.15.75-.11,1.09s-.46.18-.59-.16a1.5,1.5,0,0,1,.07-1.2"/><path class="cls-3" d="M86.84,31.89c.21-.28.54-.06.68.31.25.65.17.78-.12,1.16s-.49.2-.63-.17a1.66,1.66,0,0,1,.07-1.3"/><path class="cls-3" d="M87.67,31.25c.22-.3.59-.06.73.34.28.72.19.83-.12,1.24s-.53.22-.68-.18a1.82,1.82,0,0,1,.07-1.4"/><path class="cls-3" d="M88.5,30.6c.24-.32.63,0,.79.38.3.79.21.87-.14,1.33-.23.31-.56.22-.72-.19a2,2,0,0,1,.07-1.52"/><path class="cls-3" d="M81.09,34.5c.11-.17.28-.16.37,0a.75.75,0,0,1,0,.67c-.11.18-.27.16-.36,0a.81.81,0,0,1,0-.68"/><path class="cls-3" d="M82,33.61c.12-.2.32-.15.43.07a.82.82,0,0,1,0,.78c-.12.21-.31.18-.42,0a1,1,0,0,1,0-.81"/><path class="cls-3" d="M82.92,32.72c.14-.22.37-.15.49.11a.82.82,0,0,1,0,.87c-.14.23-.35.2-.47-.05a1.12,1.12,0,0,1,0-.93"/><path class="cls-3" d="M83.82,31.84c.17-.25.43-.16.56.13a.87.87,0,0,1,0,1c-.16.25-.39.22-.52-.06a1.34,1.34,0,0,1,0-1"/><path class="cls-3" d="M84.74,31c.17-.28.47-.15.61.16a.89.89,0,0,1-.06,1.07c-.17.27-.43.24-.57-.07a1.46,1.46,0,0,1,0-1.16"/><path class="cls-3" d="M85.65,30.06c.18-.3.52-.15.67.19a.93.93,0,0,1-.06,1.16c-.19.31-.47.27-.62-.07a1.63,1.63,0,0,1,0-1.28"/><path class="cls-3" d="M86.56,29.17c.2-.32.57-.14.74.23.3.66.22.79-.07,1.25s-.51.29-.68-.08a1.83,1.83,0,0,1,0-1.4"/><path class="cls-3" d="M87.47,28.29c.22-.35.62-.15.8.25.34.74.25.84-.08,1.35-.21.35-.54.31-.72-.09a2,2,0,0,1,0-1.51"/><path class="cls-3" d="M80.28,33.38c.1-.19.26-.2.36,0a.8.8,0,0,1,0,.69c-.11.2-.27.21-.37,0a.83.83,0,0,1,0-.69"/><path class="cls-3" d="M81.14,32.35c.12-.22.32-.21.43,0a.8.8,0,0,1,0,.78c-.12.23-.31.24-.42,0a1,1,0,0,1,0-.81"/><path class="cls-3" d="M82,31.31c.13-.24.36-.21.49,0a.84.84,0,0,1,0,.89c-.13.25-.34.26-.47,0a1.12,1.12,0,0,1,0-.93"/><path class="cls-3" d="M82.87,30.28c.14-.27.42-.22.56,0a.86.86,0,0,1,0,1c-.15.28-.38.29-.52,0a1.32,1.32,0,0,1,0-1"/><path class="cls-3" d="M83.74,29.25c.15-.3.46-.23.62.06a.91.91,0,0,1,0,1.07c-.16.31-.41.32-.57,0a1.42,1.42,0,0,1,0-1.16"/><path class="cls-3" d="M84.6,28.22c.17-.33.52-.23.68.08a.93.93,0,0,1,0,1.16c-.18.34-.46.35-.63,0a1.67,1.67,0,0,1-.05-1.28"/><path class="cls-3" d="M85.46,27.19c.19-.36.57-.25.75.09a1,1,0,0,1,0,1.26c-.19.36-.49.38-.67,0a1.86,1.86,0,0,1-.07-1.39"/><path class="cls-3" d="M86.33,26.15c.2-.38.61-.25.81.12.37.69.28.79,0,1.36-.21.38-.53.4-.72,0a2,2,0,0,1-.08-1.52"/><path class="cls-3" d="M79.41,32.41c.1-.21.26-.25.37-.08a.84.84,0,0,1,0,.68c-.1.22-.27.25-.37.08a.8.8,0,0,1,0-.68"/><path class="cls-3" d="M80.36,31c.11-.25.32-.26.44-.07a.79.79,0,0,1,0,.8c-.11.25-.3.29-.43.09a1,1,0,0,1,0-.82"/><path class="cls-3" d="M81.31,29.68c.12-.28.37-.28.51-.06a.83.83,0,0,1,0,.91c-.13.28-.34.32-.49.1a1.16,1.16,0,0,1-.06-.95"/><path class="cls-3" d="M82.25,28.31a.31.31,0,0,1,.59,0,.86.86,0,0,1,0,1c-.14.32-.38.37-.54.12a1.41,1.41,0,0,1-.09-1.09"/><path class="cls-3" d="M83.2,27a.36.36,0,0,1,.67,0,.93.93,0,0,1,0,1.13c-.15.35-.42.4-.6.13A1.56,1.56,0,0,1,83.2,27"/><path class="cls-3" d="M84.15,25.58c.17-.39.54-.33.74,0,.35.54.29.69,0,1.23s-.47.45-.66.15a1.72,1.72,0,0,1-.13-1.36"/><path class="cls-3" d="M85.1,24.21c.19-.41.6-.34.81,0,.41.62.32.74,0,1.35-.18.42-.5.49-.71.16a1.94,1.94,0,0,1-.15-1.5"/><path class="cls-3" d="M78.5,31.57c.09-.23.25-.29.36-.14a.81.81,0,0,1,.07.69c-.09.22-.25.28-.37.13a.79.79,0,0,1-.06-.68"/><path class="cls-3" d="M79.39,30.06c.09-.27.3-.32.43-.15a.8.8,0,0,1,.07.8c-.1.26-.29.33-.42.16a.94.94,0,0,1-.08-.81"/><path class="cls-3" d="M80.26,28.54c.11-.3.36-.34.51-.14a.81.81,0,0,1,.08.9c-.11.3-.32.38-.48.18a1.15,1.15,0,0,1-.11-.94"/><path class="cls-3" d="M81.15,27c.11-.33.41-.36.58-.14a.87.87,0,0,1,.09,1c-.13.34-.37.43-.54.21A1.32,1.32,0,0,1,81.15,27"/><path class="cls-3" d="M82,25.51c.14-.38.47-.39.66-.15.33.42.29.62.1,1.12s-.4.48-.59.23a1.49,1.49,0,0,1-.17-1.2"/><path class="cls-3" d="M82.9,24a.41.41,0,0,1,.74-.14c.37.48.32.65.1,1.22-.15.41-.44.53-.65.26A1.7,1.7,0,0,1,82.9,24"/><path class="cls-3" d="M83.78,22.47a.44.44,0,0,1,.81-.14c.43.55.35.69.12,1.33-.17.45-.49.58-.71.28a1.88,1.88,0,0,1-.22-1.47"/><path class="cls-3" d="M77.56,30.88c.08-.23.23-.33.35-.19a.75.75,0,0,1,.09.67c-.07.24-.23.32-.35.19a.77.77,0,0,1-.09-.67"/><path class="cls-3" d="M78.37,29.23c.08-.27.28-.36.42-.21a.77.77,0,0,1,.11.78c-.09.28-.27.38-.41.23a.92.92,0,0,1-.12-.8"/><path class="cls-3" d="M79.17,27.58c.1-.32.34-.4.5-.23a.78.78,0,0,1,.12.89c-.09.31-.3.43-.46.26a1.05,1.05,0,0,1-.16-.92"/><path class="cls-3" d="M80,25.92c.1-.35.39-.43.57-.24s.27.54.14,1-.35.48-.53.29a1.26,1.26,0,0,1-.18-1"/><path class="cls-3" d="M80.78,24.26c.12-.39.45-.46.65-.25.35.38.31.57.15,1.11-.12.39-.38.54-.58.32a1.43,1.43,0,0,1-.22-1.18"/><path class="cls-3" d="M81.59,22.61c.13-.43.5-.5.72-.27.4.43.35.6.16,1.22-.13.43-.41.59-.63.36a1.63,1.63,0,0,1-.25-1.31"/><path class="cls-3" d="M82.39,21c.15-.48.56-.54.8-.28.46.49.39.63.18,1.32-.15.47-.45.64-.69.39A1.75,1.75,0,0,1,82.39,21"/><path class="cls-3" d="M76.59,30.36c.06-.25.21-.37.34-.26a.76.76,0,0,1,.13.65c-.06.26-.22.37-.35.27a.78.78,0,0,1-.12-.66"/><path class="cls-3" d="M77.21,28.83c.07-.28.26-.41.41-.28a.74.74,0,0,1,.14.74c-.07.29-.25.42-.39.3a.84.84,0,0,1-.16-.76"/><path class="cls-3" d="M77.84,27.31c.07-.32.3-.45.46-.31s.25.45.16.84-.28.47-.44.33a1,1,0,0,1-.18-.86"/><path class="cls-3" d="M78.46,25.78c.08-.36.34-.48.52-.33s.28.48.17.93-.3.52-.48.36a1.1,1.1,0,0,1-.21-1"/><path class="cls-3" d="M79.08,24.25c.09-.39.39-.52.59-.34s.31.49.19,1-.34.57-.53.4a1.23,1.23,0,0,1-.25-1.07"/><path class="cls-3" d="M79.7,22.72c.1-.42.44-.55.65-.36.38.32.35.52.21,1.1-.11.43-.37.62-.58.44a1.39,1.39,0,0,1-.28-1.18"/><path class="cls-3" d="M80.32,21.2c.11-.46.48-.59.71-.39.43.37.38.54.23,1.2-.11.45-.4.66-.63.46a1.51,1.51,0,0,1-.31-1.27"/><path class="cls-3" d="M80.94,19.67c.12-.49.53-.62.78-.41.47.41.41.57.24,1.29-.12.49-.42.72-.67.5a1.65,1.65,0,0,1-.35-1.38"/><path class="cls-3" d="M75.6,30c.05-.26.2-.4.33-.32a.71.71,0,0,1,.15.64c0,.26-.19.4-.33.31A.68.68,0,0,1,75.6,30"/><path class="cls-3" d="M76.15,28.36c0-.29.24-.44.39-.34a.67.67,0,0,1,.17.72c-.06.3-.22.46-.37.35a.76.76,0,0,1-.19-.73"/><path class="cls-3" d="M76.7,26.74c.06-.33.28-.49.45-.37s.27.4.19.8-.25.51-.42.4a.9.9,0,0,1-.22-.83"/><path class="cls-3" d="M77.24,25.12c.07-.37.33-.54.52-.41s.3.42.21.9-.28.56-.47.43a1,1,0,0,1-.26-.92"/><path class="cls-3" d="M77.79,23.49c.08-.4.37-.57.57-.43s.34.44.24,1-.3.61-.51.48a1.14,1.14,0,0,1-.3-1"/><path class="cls-3" d="M78.34,21.87c.08-.44.41-.62.63-.47.39.26.38.46.26,1.07-.09.44-.33.67-.56.52a1.24,1.24,0,0,1-.33-1.12"/><path class="cls-3" d="M78.89,20.25c.09-.48.45-.66.69-.5.44.29.41.48.28,1.15-.09.48-.36.73-.61.57a1.36,1.36,0,0,1-.36-1.22"/><path class="cls-3" d="M79.43,18.63c.1-.52.5-.71.76-.54.49.33.43.5.3,1.24-.1.51-.39.79-.65.61a1.48,1.48,0,0,1-.41-1.31"/><path class="cls-3" d="M74.6,29.78c0-.27.17-.43.31-.36s.22.34.18.61-.17.42-.31.35-.22-.33-.18-.6"/><path class="cls-3" d="M75,28.29c0-.3.21-.48.36-.4s.25.35.2.68-.19.48-.34.4-.26-.38-.22-.68"/><path class="cls-3" d="M75.42,26.79c0-.33.25-.52.41-.43s.28.36.23.75-.22.53-.39.45a.79.79,0,0,1-.25-.77"/><path class="cls-3" d="M75.83,25.3c0-.36.28-.56.47-.48s.31.38.24.83-.24.59-.42.5a.91.91,0,0,1-.29-.85"/><path class="cls-3" d="M76.24,23.81c.06-.4.32-.61.52-.51s.34.38.27.9-.26.63-.47.53a1,1,0,0,1-.32-.92"/><path class="cls-3" d="M76.65,22.31c.06-.43.36-.65.57-.54.37.17.37.38.29,1-.06.42-.28.69-.5.58a1.08,1.08,0,0,1-.36-1"/><path class="cls-3" d="M77.06,20.82c.06-.46.39-.7.62-.59.42.2.4.41.31,1.05-.06.46-.3.74-.54.62a1.17,1.17,0,0,1-.39-1.08"/><path class="cls-3" d="M77.47,19.33c.07-.5.43-.75.68-.62.46.22.42.41.33,1.11-.07.49-.33.8-.58.67a1.26,1.26,0,0,1-.43-1.16"/><path class="cls-3" d="M77.88,17.83c.07-.53.46-.79.73-.66.5.25.46.42.35,1.2-.07.52-.34.84-.61.71a1.36,1.36,0,0,1-.47-1.25"/><path class="cls-3" d="M73.59,29.74c0-.28.16-.46.29-.42s.24.3.21.58-.15.46-.29.41-.23-.3-.21-.57"/><path class="cls-3" d="M73.93,28.18c0-.31.19-.51.34-.46s.26.31.24.65-.18.51-.33.46-.28-.34-.25-.65"/><path class="cls-3" d="M74.27,26.62c0-.34.22-.56.39-.5s.29.31.26.71-.19.57-.37.52-.31-.39-.28-.73"/><path class="cls-3" d="M74.61,25.07c0-.38.25-.61.44-.55s.33.32.29.78-.22.63-.41.56-.36-.42-.32-.79"/><path class="cls-3" d="M74.94,23.51c0-.4.29-.66.5-.59s.36.32.31.85-.23.68-.44.61-.4-.46-.37-.87"/><path class="cls-3" d="M75.28,22c0-.43.33-.71.55-.63.37.12.39.33.33.92s-.25.73-.47.66a1,1,0,0,1-.41-.95"/><path class="cls-3" d="M75.62,20.4c0-.47.36-.76.6-.68.42.13.42.33.36,1,0,.47-.27.79-.51.71a1.06,1.06,0,0,1-.45-1"/><path class="cls-3" d="M76,18.84c0-.5.39-.81.65-.73.47.16.45.35.38,1.07,0,.5-.29.84-.55.75A1.11,1.11,0,0,1,76,18.84"/><path class="cls-3" d="M76.3,17.29c0-.54.43-.87.7-.78.51.17.47.35.4,1.13-.05.54-.3.9-.58.81a1.19,1.19,0,0,1-.52-1.16"/><path class="cls-3" d="M72.59,29.85c0-.27.13-.47.27-.45s.24.26.23.54-.13.48-.27.46-.24-.27-.23-.55"/><path class="cls-3" d="M72.82,28.42c0-.3.16-.52.32-.5s.27.27.26.6-.15.53-.31.51-.28-.3-.27-.61"/><path class="cls-3" d="M73.06,27c0-.34.19-.58.36-.55s.3.26.28.65-.16.59-.34.56-.32-.33-.3-.66"/><path class="cls-3" d="M73.29,25.57c0-.36.22-.63.41-.6s.32.27.3.71-.18.64-.36.61-.37-.35-.35-.72"/><path class="cls-3" d="M73.53,24.14c0-.39.24-.68.44-.65s.35.27.33.78-.19.68-.39.65-.4-.38-.38-.78"/><path class="cls-3" d="M73.76,22.72c0-.43.27-.73.49-.7s.38.27.35.83-.2.74-.41.7-.44-.41-.43-.83"/><path class="cls-3" d="M74,21.29c0-.45.3-.78.53-.75.39.07.4.27.38.89,0,.46-.22.79-.45.75s-.48-.44-.46-.89"/><path class="cls-3" d="M74.23,19.86c0-.48.33-.83.58-.79.43.07.42.27.4.94,0,.49-.23.84-.47.81s-.53-.48-.51-1"/><path class="cls-3" d="M74.46,18.43c0-.51.36-.88.62-.84.48.08.46.28.43,1,0,.51-.25.89-.5.85s-.56-.51-.55-1"/><path class="cls-3" d="M74.7,17c0-.55.38-.94.66-.89.52.08.49.27.45,1.06,0,.54-.26.94-.53.9s-.6-.54-.58-1.07"/><path class="cls-3" d="M71.59,30.14c0-.28.11-.5.25-.5s.26.21.26.5-.11.5-.25.5-.26-.22-.26-.5"/><path class="cls-3" d="M71.76,28.68c0-.31.14-.56.29-.56s.28.22.28.56-.12.55-.28.55-.29-.25-.29-.55"/><path class="cls-3" d="M71.92,27.21c0-.33.17-.61.34-.61s.31.22.31.61-.14.61-.31.61-.34-.27-.34-.61"/><path class="cls-3" d="M72.09,25.75c0-.36.19-.66.38-.66s.33.21.33.66-.14.66-.33.66-.38-.29-.38-.66"/><path class="cls-3" d="M72.26,24.29c0-.39.21-.72.41-.72s.37.21.37.72-.16.71-.36.71-.42-.31-.42-.71"/><path class="cls-3" d="M72.42,22.83c0-.43.25-.77.46-.77s.39.2.39.76-.17.77-.38.77-.46-.33-.47-.76"/><path class="cls-3" d="M72.59,21.37c0-.46.27-.83.5-.83.39,0,.42.2.42.82,0,.46-.18.82-.41.83s-.5-.37-.51-.82"/><path class="cls-3" d="M72.76,19.91c0-.49.29-.89.54-.89.43,0,.44.2.45.88,0,.48-.2.87-.45.88s-.54-.39-.54-.87"/><path class="cls-3" d="M72.93,18.44c0-.51.31-.93.57-.93.48,0,.48.2.48.93,0,.51-.21.93-.47.93s-.58-.41-.58-.93"/><path class="cls-3" d="M73.09,17c0-.55.34-1,.62-1,.52,0,.5.2.51,1,0,.54-.22,1-.5,1s-.62-.43-.63-1"/><path class="cls-3" d="M70.62,30.59c0-.28.08-.52.22-.54s.27.18.28.45S71,31,70.89,31s-.26-.18-.27-.45"/><path class="cls-3" d="M70.72,29.1c0-.3.1-.57.26-.6s.28.18.3.5-.09.58-.25.61-.3-.21-.31-.51"/><path class="cls-3" d="M70.81,27.61c0-.33.14-.63.3-.65s.32.16.34.55-.1.63-.27.66-.35-.22-.37-.56"/><path class="cls-3" d="M70.91,26.13c0-.36.15-.69.34-.72s.34.16.37.6-.12.69-.3.72-.39-.24-.41-.6"/><path class="cls-3" d="M71,24.65c0-.39.18-.75.37-.79s.38.15.4.66-.12.74-.32.77S71,25,71,24.65"/><path class="cls-3" d="M71.11,23.16c0-.42.2-.8.41-.84s.4.14.43.7-.13.79-.35.83-.47-.26-.49-.69"/><path class="cls-3" d="M71.21,21.67c0-.45.22-.86.45-.9.39-.06.42.13.45.75,0,.46-.14.86-.37.9s-.51-.29-.53-.75"/><path class="cls-3" d="M71.3,20.19c0-.48.25-.92.49-1,.44-.08.45.12.49.8,0,.48-.15.9-.4.95s-.55-.31-.58-.79"/><path class="cls-3" d="M71.4,18.71c0-.51.27-1,.53-1,.47-.07.48.11.52.85,0,.51-.16,1-.42,1s-.6-.33-.63-.83"/><path class="cls-3" d="M71.5,17.22c0-.54.29-1,.56-1.08.52-.09.51.1.55.9,0,.54-.17,1-.44,1.06s-.64-.34-.67-.88"/><path class="cls-3" d="M69.67,31.19c0-.27.06-.53.19-.58s.28.14.31.41-.07.53-.21.58-.27-.14-.29-.41"/><path class="cls-3" d="M69.7,29.69c0-.29.08-.59.23-.64s.29.13.33.45-.07.59-.22.64-.31-.14-.34-.45"/><path class="cls-3" d="M69.72,28.2c0-.33.11-.66.27-.71s.32.11.36.5-.07.64-.24.7-.35-.16-.39-.49"/><path class="cls-3" d="M69.75,26.7c0-.36.12-.71.3-.77s.35.09.4.53-.08.71-.26.77-.4-.17-.44-.53"/><path class="cls-3" d="M69.78,25.2a.84.84,0,0,1,.34-.84c.3-.1.37.09.42.59s-.08.76-.28.82-.44-.18-.48-.57"/><path class="cls-3" d="M69.81,23.71a.91.91,0,0,1,.37-.91c.35-.12.4.08.46.63s-.1.81-.31.88-.48-.18-.52-.6"/><path class="cls-3" d="M69.84,22.21a1,1,0,0,1,.4-1c.39-.13.43.06.49.67,0,.45-.1.87-.32.95s-.53-.2-.57-.65"/><path class="cls-3" d="M69.86,20.71a1.07,1.07,0,0,1,.44-1c.43-.15.46,0,.53.71,0,.48-.11.93-.35,1s-.57-.21-.62-.69"/><path class="cls-3" d="M69.89,19.21a1.13,1.13,0,0,1,.48-1.1c.47-.16.48,0,.55.76,0,.51-.11,1-.37,1.07s-.61-.22-.66-.73"/><path class="cls-3" d="M69.92,17.72a1.2,1.2,0,0,1,.51-1.17c.51-.18.51,0,.59.8,0,.54-.12,1-.39,1.14s-.66-.23-.71-.77"/><path class="cls-3" d="M68.74,32c0-.27,0-.54.18-.61s.28.09.32.36,0,.54-.18.61-.27-.09-.32-.36"/><path class="cls-3" d="M68.7,30.26a.71.71,0,0,1,.2-.69c.19-.09.31.08.36.41a.69.69,0,0,1-.19.68c-.15.08-.33-.09-.37-.4"/><path class="cls-3" d="M68.65,28.58a.83.83,0,0,1,.24-.77c.23-.12.34.06.4.44a.78.78,0,0,1-.22.76c-.17.08-.37-.1-.42-.43"/><path class="cls-3" d="M68.6,26.9a.91.91,0,0,1,.28-.85c.28-.15.37,0,.44.48s-.06.74-.24.83-.42-.1-.48-.46"/><path class="cls-3" d="M68.56,25.21a1,1,0,0,1,.31-.93c.32-.17.4,0,.47.53a1,1,0,0,1-.25.91c-.21.09-.47-.11-.53-.51"/><path class="cls-3" d="M68.51,23.53a1.08,1.08,0,0,1,.35-1c.37-.19.42,0,.51.57s-.06.87-.28,1-.51-.12-.58-.54"/><path class="cls-3" d="M68.47,21.84a1.18,1.18,0,0,1,.38-1.09c.41-.21.45,0,.54.62.07.46-.06.93-.29,1.05s-.56-.12-.63-.58"/><path class="cls-3" d="M68.42,20.15A1.24,1.24,0,0,1,68.84,19c.45-.24.48,0,.58.66.07.49-.06,1-.31,1.12s-.62-.12-.69-.62"/><path class="cls-3" d="M68.37,18.47a1.34,1.34,0,0,1,.45-1.24c.51-.27.51-.06.63.7.08.52-.08,1.06-.34,1.19s-.66-.12-.74-.65"/><path class="cls-3" d="M67.86,32.85a.68.68,0,0,1,.15-.63c.13-.09.28.05.33.31a.66.66,0,0,1-.14.62c-.14.1-.29,0-.34-.3"/><path class="cls-3" d="M67.74,31.18a.78.78,0,0,1,.17-.72c.18-.13.31,0,.38.35a.79.79,0,0,1-.16.7c-.15.11-.34,0-.39-.33"/><path class="cls-3" d="M67.61,29.51a.9.9,0,0,1,.21-.81c.22-.15.34,0,.41.39a.83.83,0,0,1-.17.78c-.17.11-.39,0-.45-.36"/><path class="cls-3" d="M67.49,27.84a1,1,0,0,1,.24-.89c.26-.19.36,0,.45.42a1,1,0,0,1-.19.86c-.19.12-.43,0-.5-.39"/><path class="cls-3" d="M67.36,26.17a1.07,1.07,0,0,1,.28-1c.3-.22.39-.05.49.45a1,1,0,0,1-.22.94c-.19.14-.47,0-.55-.41"/><path class="cls-3" d="M67.24,24.5a1.19,1.19,0,0,1,.3-1.07c.35-.25.42-.07.54.49a1.11,1.11,0,0,1-.24,1c-.21.14-.52,0-.6-.44"/><path class="cls-3" d="M67.11,22.82a1.33,1.33,0,0,1,.33-1.15c.4-.27.46-.09.58.53a1.18,1.18,0,0,1-.25,1.1c-.23.15-.57,0-.66-.48"/><path class="cls-3" d="M67,21.15a1.38,1.38,0,0,1,.36-1.23c.45-.31.48-.12.62.56a1.25,1.25,0,0,1-.27,1.17c-.24.17-.61,0-.71-.5"/><path class="cls-3" d="M66.87,19.48a1.47,1.47,0,0,1,.39-1.32c.49-.34.5-.14.65.6A1.35,1.35,0,0,1,67.63,20c-.26.17-.66,0-.76-.53"/><path class="cls-3" d="M67,33.9a.77.77,0,0,1,.11-.66c.13-.11.28,0,.35.25a.71.71,0,0,1-.12.65c-.12.12-.28,0-.34-.24"/><path class="cls-3" d="M66.83,32.25a.84.84,0,0,1,.14-.74c.17-.15.31,0,.38.27a.82.82,0,0,1-.12.73c-.14.13-.33,0-.4-.26"/><path class="cls-3" d="M66.63,30.6a1,1,0,0,1,.16-.83c.22-.19.33-.06.43.31a.92.92,0,0,1-.14.81c-.16.13-.38,0-.45-.29"/><path class="cls-3" d="M66.43,29a1,1,0,0,1,.19-.93c.25-.22.36-.08.47.34a1,1,0,0,1-.16.89c-.17.15-.42,0-.5-.3"/><path class="cls-3" d="M66.23,27.32a1.21,1.21,0,0,1,.21-1c.3-.26.39-.11.51.37a1.08,1.08,0,0,1-.16,1c-.19.17-.47.05-.56-.31"/><path class="cls-3" d="M66,25.67a1.31,1.31,0,0,1,.25-1.11c.34-.3.41-.14.55.4a1.16,1.16,0,0,1-.18,1c-.2.19-.51.06-.62-.33"/><path class="cls-3" d="M65.82,24a1.44,1.44,0,0,1,.27-1.2c.39-.34.45-.17.6.43a1.25,1.25,0,0,1-.2,1.13c-.22.19-.56.07-.67-.36"/><path class="cls-3" d="M65.62,22.38a1.55,1.55,0,0,1,.3-1.3c.43-.38.47-.19.64.47a1.36,1.36,0,0,1-.21,1.2c-.24.21-.61.08-.73-.37"/><path class="cls-3" d="M65.42,20.73a1.63,1.63,0,0,1,.32-1.39c.47-.41.5-.22.69.5a1.45,1.45,0,0,1-.23,1.29c-.25.22-.66.09-.78-.4"/><path class="cls-3" d="M66.26,35.07a.75.75,0,0,1,.07-.67c.12-.14.28,0,.36.19a.81.81,0,0,1-.08.68c-.12.13-.28,0-.35-.2"/><path class="cls-3" d="M66,33.46a.88.88,0,0,1,.11-.76c.16-.18.3-.08.4.21a.91.91,0,0,1-.09.76c-.14.14-.33.06-.42-.21"/><path class="cls-3" d="M65.7,31.85a1,1,0,0,1,.12-.85c.2-.23.33-.12.44.23a.94.94,0,0,1-.1.84c-.15.17-.37.09-.46-.22"/><path class="cls-3" d="M65.42,30.24a1.15,1.15,0,0,1,.14-.95c.25-.27.36-.14.49.27a1.06,1.06,0,0,1-.11.91c-.17.18-.42.1-.52-.23"/><path class="cls-3" d="M65.14,28.63a1.24,1.24,0,0,1,.17-1c.28-.32.38-.18.53.28a1.15,1.15,0,0,1-.12,1c-.18.2-.47.12-.58-.24"/><path class="cls-3" d="M64.86,27a1.38,1.38,0,0,1,.2-1.15c.32-.36.4-.2.57.31a1.25,1.25,0,0,1-.13,1.08c-.2.21-.52.14-.64-.24"/><path class="cls-3" d="M64.59,25.42a1.54,1.54,0,0,1,.21-1.24c.36-.4.43-.23.61.34a1.33,1.33,0,0,1-.14,1.16c-.21.22-.55.16-.68-.26"/><path class="cls-3" d="M64.31,23.81a1.63,1.63,0,0,1,.23-1.33c.41-.45.47-.27.66.35a1.41,1.41,0,0,1-.15,1.25c-.22.24-.61.18-.74-.27"/><path class="cls-3" d="M64,22.2a1.75,1.75,0,0,1,.26-1.43c.45-.48.48-.3.7.39a1.5,1.5,0,0,1-.16,1.32c-.24.26-.65.2-.8-.28"/><path class="cls-3" d="M65.53,36.37a.79.79,0,0,1,0-.68c.11-.15.28-.09.36.13a.81.81,0,0,1,0,.69c-.12.15-.28.09-.36-.14"/><path class="cls-3" d="M65.18,34.82a.94.94,0,0,1,.06-.78c.16-.21.3-.14.41.14a.92.92,0,0,1-.05.77c-.13.17-.33.12-.42-.13"/><path class="cls-3" d="M64.83,33.26a1.05,1.05,0,0,1,.08-.88c.19-.26.33-.17.45.16a1,1,0,0,1-.06.85c-.14.19-.37.14-.47-.13"/><path class="cls-3" d="M64.47,31.7a1.2,1.2,0,0,1,.11-1c.23-.3.34-.2.49.19a1.06,1.06,0,0,1-.07.93c-.15.2-.41.17-.53-.14"/><path class="cls-3" d="M64.12,30.14a1.32,1.32,0,0,1,.12-1.08c.27-.35.37-.23.54.21a1.2,1.2,0,0,1-.07,1c-.17.22-.46.19-.59-.14"/><path class="cls-3" d="M63.77,28.58a1.45,1.45,0,0,1,.14-1.17c.31-.41.39-.27.58.22a1.27,1.27,0,0,1-.08,1.09c-.18.24-.5.23-.64-.14"/><path class="cls-3" d="M63.41,27a1.63,1.63,0,0,1,.17-1.28c.34-.46.41-.31.62.24a1.34,1.34,0,0,1-.09,1.17c-.19.26-.54.26-.7-.13"/><path class="cls-3" d="M63.06,25.47a1.75,1.75,0,0,1,.18-1.38c.39-.51.44-.34.67.26a1.44,1.44,0,0,1-.09,1.25.42.42,0,0,1-.76-.13"/><path class="cls-3" d="M62.71,23.91a1.92,1.92,0,0,1,.2-1.47c.42-.57.47-.38.71.26a1.56,1.56,0,0,1-.1,1.35.44.44,0,0,1-.81-.14"/><path class="cls-3" d="M64.87,37.78a.77.77,0,0,1,0-.68c.1-.18.27-.14.36.07a.83.83,0,0,1,0,.69c-.12.17-.28.14-.37-.08"/><path class="cls-3" d="M64.39,36.07a1,1,0,0,1,0-.8c.15-.23.3-.18.42.09a.92.92,0,0,1,0,.78c-.12.2-.32.18-.43-.07"/><path class="cls-3" d="M63.9,34.37a1.15,1.15,0,0,1,.05-.93c.19-.3.33-.22.47.11a1,1,0,0,1,0,.88c-.14.21-.37.21-.5-.06"/><path class="cls-3" d="M63.42,32.66a1.33,1.33,0,0,1,.06-1c.24-.36.35-.27.53.11a1.19,1.19,0,0,1,0,1c-.15.24-.42.25-.56-.05"/><path class="cls-3" d="M62.94,31A1.43,1.43,0,0,1,63,29.8c.27-.44.37-.32.56.12a1.21,1.21,0,0,1,0,1.07c-.17.26-.47.29-.62,0"/><path class="cls-3" d="M62.46,29.24A1.59,1.59,0,0,1,62.55,28c.31-.5.4-.36.62.13a1.4,1.4,0,0,1,0,1.17c-.18.28-.52.33-.68,0"/><path class="cls-3" d="M62,27.53a1.82,1.82,0,0,1,.11-1.38c.36-.57.42-.41.67.14a1.46,1.46,0,0,1,0,1.26c-.19.3-.57.37-.75,0"/><path class="cls-3" d="M61.49,25.82a1.93,1.93,0,0,1,.12-1.5c.4-.63.45-.45.73.15a1.61,1.61,0,0,1,0,1.36c-.21.32-.62.41-.81,0"/><path class="cls-3" d="M64.28,39.3a.87.87,0,0,1,0-.69c.1-.18.27-.17.38,0a.86.86,0,0,1,0,.7c-.1.18-.27.18-.37,0"/><path class="cls-3" d="M63.72,37.68a1,1,0,0,1,0-.81c.14-.26.3-.23.43,0a1,1,0,0,1,0,.79c-.11.22-.31.23-.43,0"/><path class="cls-3" d="M63.16,36.05a1.13,1.13,0,0,1,0-.92c.18-.33.32-.28.48,0a1.06,1.06,0,0,1,0,.89c-.12.23-.36.27-.49,0"/><path class="cls-3" d="M62.6,34.43a1.36,1.36,0,0,1,0-1c.21-.4.34-.32.53,0a1.16,1.16,0,0,1,0,1c-.14.27-.41.32-.56,0"/><path class="cls-3" d="M62,32.8a1.46,1.46,0,0,1,0-1.16c.25-.48.36-.38.58,0a1.31,1.31,0,0,1,0,1.08c-.15.28-.46.36-.62.06"/><path class="cls-3" d="M61.48,31.18a1.67,1.67,0,0,1,0-1.28c.29-.55.38-.43.63,0a1.37,1.37,0,0,1,0,1.17c-.16.32-.51.41-.68.09"/><path class="cls-3" d="M60.92,29.55a1.83,1.83,0,0,1,0-1.4c.33-.62.4-.47.68,0a1.53,1.53,0,0,1,0,1.27c-.18.34-.56.45-.75.1"/><path class="cls-3" d="M60.36,27.92a2,2,0,0,1,0-1.51c.37-.69.42-.52.73,0a1.62,1.62,0,0,1,0,1.36c-.2.36-.6.51-.81.12"/><path class="cls-3" d="M63.76,40.91a.81.81,0,0,1,0-.68c.09-.21.25-.23.37,0a.83.83,0,0,1,0,.69c-.09.2-.25.22-.37,0"/><path class="cls-3" d="M63.13,39.39a1,1,0,0,1,0-.81c.12-.28.27-.28.42,0a.92.92,0,0,1,.05.78c-.1.23-.3.27-.43.08"/><path class="cls-3" d="M62.5,37.86a1.16,1.16,0,0,1,0-.93c.16-.36.29-.33.47-.06a1,1,0,0,1,.06.88c-.11.26-.35.33-.49.11"/><path class="cls-3" d="M61.86,36.32a1.34,1.34,0,0,1,0-1c.19-.44.31-.38.52-.06a1.17,1.17,0,0,1,.07,1c-.13.28-.39.39-.56.13"/><path class="cls-3" d="M61.23,34.8a1.48,1.48,0,0,1,0-1.17c.23-.51.34-.43.57-.07a1.29,1.29,0,0,1,.08,1.07c-.15.31-.45.44-.62.17"/><path class="cls-3" d="M60.59,33.27a1.69,1.69,0,0,1,0-1.29c.26-.59.36-.48.62-.07a1.35,1.35,0,0,1,.08,1.16c-.15.34-.48.5-.68.2"/><path class="cls-3" d="M60,31.74a1.83,1.83,0,0,1,0-1.4c.3-.68.38-.54.68-.08a1.47,1.47,0,0,1,.08,1.25c-.16.37-.53.55-.74.23"/><path class="cls-3" d="M59.33,30.21a2,2,0,0,1,0-1.52c.33-.75.4-.58.72-.09a1.6,1.6,0,0,1,.1,1.35c-.18.39-.58.6-.8.26"/><path class="cls-3" d="M63.33,42.6a.78.78,0,0,1-.08-.67c.08-.22.24-.27.36-.11a.76.76,0,0,1,.08.68c-.08.21-.24.26-.36.1"/><path class="cls-3" d="M62.51,41a1,1,0,0,1-.08-.82c.11-.31.26-.33.42-.13a.9.9,0,0,1,.09.79c-.09.25-.29.33-.43.16"/><path class="cls-3" d="M61.69,39.28a1.11,1.11,0,0,1-.08-1c.15-.41.28-.39.48-.14a1,1,0,0,1,.1.9c-.1.28-.34.4-.5.19"/><path class="cls-3" d="M60.87,37.62a1.32,1.32,0,0,1-.08-1.09c.18-.51.3-.46.54-.16a1.18,1.18,0,0,1,.11,1c-.11.32-.39.48-.57.24"/><path class="cls-3" d="M60.05,36A1.64,1.64,0,0,1,60,34.73c.22-.6.33-.52.61-.17a1.31,1.31,0,0,1,.12,1.12c-.12.35-.44.55-.64.29"/><path class="cls-3" d="M59.23,34.31a1.79,1.79,0,0,1-.09-1.37c.26-.7.35-.59.66-.19A1.39,1.39,0,0,1,59.94,34c-.14.38-.49.62-.71.34"/><path class="cls-3" d="M58.41,32.65a2,2,0,0,1-.09-1.51c.3-.8.37-.65.72-.2a1.53,1.53,0,0,1,.15,1.33c-.15.42-.54.69-.78.38"/><path class="cls-3" d="M63,44.36a.75.75,0,0,1-.11-.66c.07-.24.23-.31.36-.17a.82.82,0,0,1,.11.67c-.07.22-.23.29-.36.16"/><path class="cls-3" d="M62.08,42.83A.92.92,0,0,1,62,42c.1-.34.25-.38.42-.19a.9.9,0,0,1,.12.77c-.08.26-.27.38-.42.21"/><path class="cls-3" d="M61.18,41.32a1.15,1.15,0,0,1-.12-.94c.13-.44.26-.44.47-.22a1,1,0,0,1,.15.88c-.09.3-.33.46-.5.28"/><path class="cls-3" d="M60.29,39.79a1.29,1.29,0,0,1-.13-1.07c.16-.54.28-.51.53-.24a1.12,1.12,0,0,1,.16,1c-.1.34-.37.54-.56.33"/><path class="cls-3" d="M59.4,38.28a1.52,1.52,0,0,1-.15-1.22c.2-.64.31-.58.59-.27A1.23,1.23,0,0,1,60,37.88c-.11.37-.41.62-.62.4"/><path class="cls-3" d="M58.51,36.76a1.73,1.73,0,0,1-.16-1.36c.23-.74.32-.65.65-.3a1.36,1.36,0,0,1,.2,1.2c-.12.41-.46.7-.69.46"/><path class="cls-3" d="M57.62,35.23a1.89,1.89,0,0,1-.17-1.48c.26-.85.34-.72.71-.33a1.48,1.48,0,0,1,.21,1.3c-.13.45-.5.79-.75.51"/><path class="cls-3" d="M62.69,46.16a.73.73,0,0,1-.14-.64c.07-.23.22-.34.35-.22a.71.71,0,0,1,.15.64c-.06.24-.23.34-.36.22"/><path class="cls-3" d="M61.87,45a.87.87,0,0,1-.15-.76c.08-.33.23-.4.39-.25a.8.8,0,0,1,.17.73c-.07.27-.26.41-.41.28"/><path class="cls-3" d="M61.05,43.81a1,1,0,0,1-.17-.87c.1-.42.24-.46.45-.28a.92.92,0,0,1,.18.82c-.07.3-.29.48-.46.33"/><path class="cls-3" d="M60.23,42.64a1.19,1.19,0,0,1-.18-1c.12-.52.25-.52.49-.31a1,1,0,0,1,.2.9c-.08.33-.32.57-.51.4"/><path class="cls-3" d="M59.4,41.46a1.33,1.33,0,0,1-.19-1.1c.15-.61.26-.59.55-.34A1.11,1.11,0,0,1,60,41c-.09.37-.36.64-.57.45"/><path class="cls-3" d="M58.58,40.29a1.5,1.5,0,0,1-.2-1.23c.17-.7.27-.64.59-.37a1.21,1.21,0,0,1,.24,1.08c-.1.4-.4.72-.63.52"/><path class="cls-3" d="M57.76,39.11a1.71,1.71,0,0,1-.22-1.34c.2-.79.29-.7.64-.4a1.29,1.29,0,0,1,.26,1.17c-.11.43-.43.79-.68.57"/><path class="cls-3" d="M56.94,37.94a1.78,1.78,0,0,1-.23-1.46c.21-.89.3-.77.69-.43a1.37,1.37,0,0,1,.27,1.26c-.11.46-.47.87-.73.63"/><path class="cls-3" d="M62.5,48a.67.67,0,0,1-.17-.62c.05-.25.2-.37.34-.28a.66.66,0,0,1,.17.62c-.05.25-.2.37-.34.28"/><path class="cls-3" d="M61.63,47a.8.8,0,0,1-.19-.73c.07-.34.21-.44.39-.32a.77.77,0,0,1,.19.71c-.05.28-.23.45-.39.34"/><path class="cls-3" d="M60.76,45.94a1,1,0,0,1-.21-.85c.08-.44.22-.5.43-.35a.82.82,0,0,1,.22.78c-.06.32-.27.54-.44.42"/><path class="cls-3" d="M59.88,44.9a1.09,1.09,0,0,1-.22-1c.1-.53.23-.55.48-.39a1,1,0,0,1,.24.88c-.07.34-.3.61-.5.48"/><path class="cls-3" d="M59,43.87a1.27,1.27,0,0,1-.24-1.08c.12-.63.24-.63.52-.43a1,1,0,0,1,.27,1c-.08.39-.33.7-.55.56"/><path class="cls-3" d="M58.14,42.83a1.42,1.42,0,0,1-.26-1.2c.14-.72.24-.68.57-.46a1.11,1.11,0,0,1,.28,1c-.07.41-.36.78-.59.62"/><path class="cls-3" d="M57.26,41.79c-.26-.17-.36-.86-.27-1.31.15-.82.25-.75.62-.5a1.19,1.19,0,0,1,.3,1.13c-.08.44-.39.85-.65.68"/><path class="cls-3" d="M56.39,40.75c-.28-.19-.38-.94-.29-1.42.17-.92.26-.81.66-.54A1.29,1.29,0,0,1,57.09,40c-.09.48-.42.94-.7.75"/><path class="cls-3" d="M62.4,49.88a.58.58,0,0,1-.19-.58c0-.26.17-.41.32-.34a.62.62,0,0,1,.2.59c0,.25-.18.41-.33.33"/><path class="cls-3" d="M61.6,49.1a.71.71,0,0,1-.22-.68c0-.34.19-.46.36-.37s.27.37.23.65-.2.48-.37.4"/><path class="cls-3" d="M60.8,48.32a.82.82,0,0,1-.24-.78c.06-.43.19-.52.4-.41a.72.72,0,0,1,.24.73c0,.31-.22.55-.4.46"/><path class="cls-3" d="M60,47.55c-.19-.1-.3-.54-.26-.89.08-.51.2-.57.45-.45a.84.84,0,0,1,.27.8c-.05.34-.26.63-.46.54"/><path class="cls-3" d="M59.19,46.76c-.21-.1-.33-.6-.28-1,.08-.61.2-.64.48-.5a.89.89,0,0,1,.29.87c0,.38-.27.71-.49.6"/><path class="cls-3" d="M58.38,46c-.23-.11-.34-.67-.29-1.07.09-.69.21-.69.52-.54a1,1,0,0,1,.31.94c-.05.41-.3.78-.54.67"/><path class="cls-3" d="M57.58,45.2c-.24-.12-.37-.74-.31-1.17.1-.78.21-.74.55-.57a1,1,0,0,1,.34,1c-.06.44-.33.86-.58.73"/><path class="cls-3" d="M56.78,44.42c-.26-.13-.4-.8-.34-1.27.12-.86.22-.79.6-.61a1.09,1.09,0,0,1,.36,1.08c-.06.47-.35.93-.62.8"/><path class="cls-3" d="M56,43.64c-.28-.14-.42-.87-.36-1.36.13-1,.23-.86.63-.66a1.15,1.15,0,0,1,.39,1.15c-.07.5-.38,1-.66.87"/><path class="cls-3" d="M62.39,51.76c-.15,0-.25-.29-.22-.55s.15-.43.3-.38.25.29.22.55-.16.43-.3.38"/><path class="cls-3" d="M61.55,51.12c-.16,0-.27-.36-.24-.65s.16-.49.34-.42.27.32.25.61-.18.51-.35.46"/><path class="cls-3" d="M60.72,50.47c-.18-.06-.3-.42-.27-.74s.16-.55.38-.47.3.36.27.68-.2.59-.38.53"/><path class="cls-3" d="M59.88,49.82c-.2-.06-.33-.48-.3-.83.05-.52.17-.6.42-.52a.71.71,0,0,1,.3.75c0,.35-.22.67-.42.6"/><path class="cls-3" d="M59,49.18c-.21-.08-.35-.55-.32-.94.06-.6.18-.65.46-.56a.82.82,0,0,1,.33.82c0,.38-.25.75-.47.68"/><path class="cls-3" d="M58.21,48.53c-.24-.07-.38-.61-.35-1,.06-.7.18-.72.49-.61s.4.47.36.88-.27.83-.5.75"/><path class="cls-3" d="M57.37,47.88c-.25-.08-.4-.67-.37-1.11.08-.79.18-.78.53-.66s.43.5.39,1-.29.91-.55.82"/><path class="cls-3" d="M56.54,47.23c-.27-.08-.44-.73-.4-1.21.08-.87.18-.83.57-.7s.45.54.41,1-.31,1-.58.89"/><path class="cls-3" d="M55.7,46.59c-.28-.1-.46-.8-.42-1.31.09-1,.19-.89.6-.75s.49.58.44,1.09-.33,1.06-.62,1"/><path class="cls-3" d="M62.46,53.64c-.15,0-.26-.25-.24-.51s.13-.46.28-.43.26.25.25.51-.14.46-.29.43"/><path class="cls-3" d="M61.69,53.19c-.16,0-.28-.31-.26-.6s.13-.5.31-.47.29.28.27.57-.15.53-.32.5"/><path class="cls-3" d="M60.93,52.74c-.18,0-.31-.36-.3-.68s.14-.55.35-.52.31.31.3.62-.17.61-.35.58"/><path class="cls-3" d="M60.16,52.28c-.19,0-.34-.41-.32-.75,0-.5.14-.6.38-.56s.34.33.33.67-.19.68-.39.64"/><path class="cls-3" d="M59.4,51.83c-.22,0-.37-.46-.35-.83,0-.58.13-.66.41-.61s.36.36.35.73-.2.75-.41.71"/><path class="cls-3" d="M58.63,51.38c-.23,0-.39-.51-.38-.91,0-.66.14-.71.45-.66s.39.39.38.79-.22.82-.45.78"/><path class="cls-3" d="M57.86,50.93c-.24,0-.41-.57-.4-1,0-.74.14-.76.47-.71s.43.42.41.84-.23.9-.48.86"/><path class="cls-3" d="M57.1,50.48c-.26,0-.45-.62-.43-1.07,0-.82.14-.81.5-.76s.46.44.44.9-.25,1-.51.93"/><path class="cls-3" d="M56.33,50c-.27-.05-.47-.68-.45-1.15,0-.9.14-.87.53-.81s.48.47.46,1-.26,1-.54,1"/><path class="cls-3" d="M55.57,49.57c-.29,0-.5-.72-.48-1.23,0-1,.14-.91.56-.84s.51.49.49,1-.28,1.12-.57,1.07"/><path class="cls-3" d="M62.63,55.5c-.15,0-.28-.21-.28-.47s.12-.48.27-.48.27.22.27.48-.12.47-.26.47"/><path class="cls-3" d="M61.84,55.18c-.17,0-.3-.26-.3-.55s.11-.53.29-.53.3.24.3.53-.13.55-.29.55"/><path class="cls-3" d="M61.05,54.85c-.17,0-.32-.3-.32-.62s.11-.58.32-.58.33.26.33.58-.15.62-.33.62"/><path class="cls-3" d="M60.27,54.53c-.19,0-.36-.35-.36-.7s.11-.63.35-.63.36.28.36.62-.15.71-.35.71"/><path class="cls-3" d="M59.49,54.2c-.22,0-.39-.4-.39-.77,0-.58.11-.69.38-.69s.39.31.39.68-.17.78-.38.78"/><path class="cls-3" d="M58.7,53.87c-.22,0-.41-.44-.41-.85,0-.65.1-.72.4-.73s.42.33.42.73-.18.85-.41.85"/><path class="cls-3" d="M57.92,53.55c-.24,0-.44-.49-.45-.93,0-.74.11-.78.44-.78s.45.35.45.78-.19.93-.44.93"/><path class="cls-3" d="M57.14,53.22c-.26,0-.48-.54-.48-1,0-.82.1-.83.46-.83s.48.37.48.82-.2,1-.46,1"/><path class="cls-3" d="M56.35,52.9c-.27,0-.5-.59-.5-1.08,0-.9.1-.88.49-.88s.5.39.5.87-.21,1.09-.49,1.09"/><path class="cls-3" d="M55.57,52.57c-.29,0-.53-.64-.53-1.15,0-1,.09-.94.52-.94s.53.42.53.93-.23,1.16-.52,1.16"/><path class="cls-3" d="M62.87,57.34c-.15,0-.27-.17-.29-.43s.09-.49.24-.52.28.17.29.43-.09.49-.24.52"/><path class="cls-3" d="M62.08,57.14c-.17,0-.31-.21-.33-.5s.09-.54.27-.57.3.18.32.47-.1.57-.26.6"/><path class="cls-3" d="M61.28,56.94c-.18,0-.34-.25-.36-.57s.09-.59.3-.63.33.21.35.52-.11.65-.29.68"/><path class="cls-3" d="M60.48,56.74c-.19,0-.37-.29-.38-.63,0-.51.08-.65.32-.69s.36.22.38.56-.12.73-.32.76"/><path class="cls-3" d="M59.69,56.55c-.21,0-.4-.34-.42-.71,0-.58.07-.69.34-.74s.4.23.42.61-.13.8-.34.84"/><path class="cls-3" d="M58.9,56.35c-.23,0-.44-.38-.46-.78,0-.66.07-.74.37-.79s.43.25.45.65-.14.88-.36.92"/><path class="cls-3" d="M58.1,56.15c-.24,0-.47-.42-.49-.85,0-.74.07-.79.4-.85s.45.27.48.7-.15,1-.39,1"/><path class="cls-3" d="M57.3,56c-.25,0-.49-.46-.52-.92,0-.81.07-.84.43-.9s.48.29.5.75-.14,1-.41,1.07"/><path class="cls-3" d="M56.51,55.75c-.28,0-.53-.5-.55-1-.05-.9,0-.89.44-1s.52.3.55.79-.17,1.11-.44,1.15"/><path class="cls-3" d="M55.71,55.56c-.29,0-.56-.55-.58-1.06-.06-1,0-.94.47-1s.54.33.57.84-.17,1.19-.46,1.24"/><path class="cls-3" d="M63.2,59.12c-.14.05-.28-.12-.31-.38s.07-.5.22-.55.28.11.3.37-.06.51-.21.56"/><path class="cls-3" d="M62.4,59.05c-.16.06-.32-.16-.35-.44s.07-.55.25-.62.31.14.34.42-.08.59-.24.64"/><path class="cls-3" d="M61.6,59c-.18,0-.35-.2-.38-.52s.05-.6.26-.67.35.15.38.46-.08.66-.26.73"/><path class="cls-3" d="M60.8,58.92c-.2.06-.38-.23-.42-.58s0-.65.29-.73.37.16.41.5-.09.74-.28.81"/><path class="cls-3" d="M60,58.85c-.21.07-.42-.27-.45-.64-.06-.57,0-.7.3-.79s.41.17.45.54-.09.82-.3.89"/><path class="cls-3" d="M59.19,58.78c-.22.08-.44-.31-.48-.7-.07-.65,0-.75.33-.85s.43.18.47.58-.09.9-.32,1"/><path class="cls-3" d="M58.39,58.72c-.24.08-.48-.35-.52-.77-.07-.73,0-.8.36-.92s.46.21.5.63-.1,1-.34,1.06"/><path class="cls-3" d="M57.59,58.65c-.25.08-.51-.38-.56-.84-.07-.8,0-.84.38-1s.5.22.54.67-.1,1.05-.36,1.14"/><path class="cls-3" d="M56.79,58.58c-.27.09-.55-.42-.59-.9-.09-.88,0-.9.4-1s.53.23.57.71-.11,1.13-.38,1.22"/><path class="cls-3" d="M56,58.51c-.29.11-.58-.45-.63-1-.1-1,0-.95.43-1.09s.55.24.61.74-.12,1.22-.41,1.31"/><path class="cls-3" d="M63.61,60.84c-.14.08-.28-.07-.32-.32a.59.59,0,0,1,.19-.59c.14-.07.29.07.33.33a.58.58,0,0,1-.2.58"/><path class="cls-3" d="M62.71,60.91c-.16.08-.32-.11-.36-.38s0-.58.21-.67.32.08.36.37a.66.66,0,0,1-.21.68"/><path class="cls-3" d="M61.81,61c-.17.1-.36-.14-.41-.45s0-.63.24-.74.36.1.4.42,0,.68-.23.77"/><path class="cls-3" d="M60.91,61.06c-.19.09-.4-.18-.45-.52-.08-.52,0-.69.25-.81s.4.1.45.45,0,.78-.25.88"/><path class="cls-3" d="M60,61.13c-.21.1-.44-.22-.5-.59-.09-.6,0-.74.28-.88s.43.11.49.49-.06.87-.27,1"/><path class="cls-3" d="M59.11,61.2c-.23.12-.48-.25-.54-.65-.1-.69,0-.8.3-.95s.47.12.53.52-.06,1-.29,1.08"/><path class="cls-3" d="M58.21,61.27c-.25.12-.52-.29-.59-.72-.11-.77,0-.84.33-1s.49.13.56.57,0,1-.3,1.17"/><path class="cls-3" d="M57.31,61.34c-.26.13-.56-.32-.63-.79-.13-.85,0-.89.35-1.08s.53.13.6.6-.06,1.13-.32,1.27"/><path class="cls-3" d="M56.41,61.41c-.28.15-.6-.35-.67-.85-.15-.94,0-1,.37-1.16s.56.15.64.65-.06,1.22-.34,1.36"/><path class="cls-3" d="M64.11,62.5c-.14.09-.3,0-.35-.27a.71.71,0,0,1,.17-.63c.14-.09.29,0,.34.28a.68.68,0,0,1-.16.62"/><path class="cls-3" d="M63.21,62.72c-.15.1-.33-.06-.38-.34a.64.64,0,0,1,.18-.69c.15-.11.32,0,.38.31a.8.8,0,0,1-.18.72"/><path class="cls-3" d="M62.32,62.93c-.17.12-.37-.08-.43-.39s0-.62.2-.77.36,0,.42.34a.87.87,0,0,1-.19.82"/><path class="cls-3" d="M61.43,63.15c-.19.13-.41-.11-.48-.45-.1-.49,0-.68.22-.85s.39,0,.46.38a1,1,0,0,1-.2.92"/><path class="cls-3" d="M60.54,63.37c-.21.14-.46-.14-.53-.51-.12-.58,0-.73.24-.92s.43.05.5.41a1.17,1.17,0,0,1-.21,1"/><path class="cls-3" d="M59.64,63.59c-.22.15-.49-.17-.57-.57-.13-.67,0-.79.26-1s.47,0,.54.44a1.31,1.31,0,0,1-.23,1.13"/><path class="cls-3" d="M58.75,63.8c-.24.17-.53-.19-.62-.62-.15-.75-.06-.84.28-1.07s.5,0,.58.47,0,1.06-.24,1.22"/><path class="cls-3" d="M57.86,64c-.26.18-.58-.23-.67-.68-.16-.84-.07-.9.3-1.15s.53.06.63.51,0,1.15-.26,1.32"/><path class="cls-3" d="M57,64.24c-.27.19-.61-.26-.71-.75-.18-.91-.08-.94.32-1.22s.57.07.67.55,0,1.23-.28,1.42"/><path class="cls-3" d="M64.67,64.07c-.13.11-.29,0-.35-.22a.71.71,0,0,1,.13-.64c.14-.12.29,0,.36.21a.7.7,0,0,1-.14.65"/><path class="cls-3" d="M63.8,64.43c-.15.13-.34,0-.41-.27a.73.73,0,0,1,.15-.72c.15-.13.33,0,.4.24a.87.87,0,0,1-.14.75"/><path class="cls-3" d="M62.92,64.79c-.17.14-.38,0-.45-.32s0-.62.16-.8.36,0,.44.27a1,1,0,0,1-.15.85"/><path class="cls-3" d="M62,65.15c-.18.16-.42,0-.5-.37-.12-.48,0-.67.18-.87s.39,0,.48.29a1.14,1.14,0,0,1-.16,1"/><path class="cls-3" d="M61.16,65.52c-.2.17-.46-.07-.54-.43-.15-.56-.07-.72.19-1s.42,0,.52.32a1.28,1.28,0,0,1-.17,1.06"/><path class="cls-3" d="M60.28,65.88c-.21.19-.5-.09-.59-.48-.16-.64-.09-.77.2-1s.47,0,.57.35a1.39,1.39,0,0,1-.18,1.16"/><path class="cls-3" d="M59.4,66.24c-.23.2-.54-.12-.64-.53-.19-.72-.1-.82.22-1.1s.5,0,.61.37a1.53,1.53,0,0,1-.19,1.26"/><path class="cls-3" d="M58.52,66.6c-.24.22-.58-.14-.69-.58-.2-.8-.12-.87.24-1.18s.54,0,.65.4a1.68,1.68,0,0,1-.2,1.36"/><path class="cls-3" d="M57.64,67c-.26.24-.62-.15-.74-.62-.23-.89-.13-.93.26-1.26s.57,0,.69.42A1.8,1.8,0,0,1,57.64,67"/><path class="cls-3" d="M65.31,65.53c-.13.14-.29.07-.36-.15a.76.76,0,0,1,.1-.67c.13-.13.29-.06.36.16a.73.73,0,0,1-.1.66"/><path class="cls-3" d="M64.45,66c-.14.15-.33,0-.41-.2a.74.74,0,0,1,.11-.75c.15-.15.33-.07.41.18a.88.88,0,0,1-.11.77"/><path class="cls-3" d="M63.6,66.55c-.16.17-.38,0-.47-.25a.76.76,0,0,1,.13-.83c.15-.17.36-.07.44.2a1.05,1.05,0,0,1-.1.88"/><path class="cls-3" d="M62.74,67.05c-.18.19-.42,0-.52-.29a.77.77,0,0,1,.14-.9c.17-.19.39-.09.49.21a1.19,1.19,0,0,1-.11,1"/><path class="cls-3" d="M61.88,67.56c-.19.2-.46,0-.57-.34-.17-.53-.09-.71.16-1s.42-.1.53.23a1.34,1.34,0,0,1-.12,1.09"/><path class="cls-3" d="M61,68.06c-.21.22-.5,0-.62-.38-.19-.61-.11-.76.17-1.06s.46-.11.57.25A1.45,1.45,0,0,1,61,68.06"/><path class="cls-3" d="M60.16,68.56c-.22.25-.54,0-.66-.42-.22-.69-.13-.8.17-1.14s.5-.11.62.27a1.6,1.6,0,0,1-.13,1.29"/><path class="cls-3" d="M59.3,69.07c-.23.26-.58,0-.71-.46-.24-.77-.15-.86.19-1.22s.52-.13.66.28a1.78,1.78,0,0,1-.14,1.4"/><path class="cls-3" d="M58.45,69.57c-.25.28-.64-.06-.77-.5-.27-.85-.16-.91.2-1.3s.56-.14.71.31a1.91,1.91,0,0,1-.14,1.49"/><path class="cls-3" d="M66,66.9c-.13.16-.29.11-.38-.1a.83.83,0,0,1,.07-.68c.13-.16.29-.12.37.1a.84.84,0,0,1-.06.68"/><path class="cls-3" d="M65.18,67.54c-.14.18-.33.11-.42-.13a.77.77,0,0,1,.08-.76c.14-.19.32-.13.41.1a.93.93,0,0,1-.07.79"/><path class="cls-3" d="M64.35,68.18c-.15.2-.37.1-.47-.17a.78.78,0,0,1,.09-.84c.15-.2.35-.14.45.12a1.09,1.09,0,0,1-.07.89"/><path class="cls-3" d="M63.52,68.83c-.16.21-.41.08-.52-.21a.81.81,0,0,1,.09-.92c.17-.22.39-.16.5.13a1.23,1.23,0,0,1-.07,1"/><path class="cls-3" d="M62.69,69.47c-.18.23-.46.07-.58-.24a.83.83,0,0,1,.11-1c.18-.24.42-.17.54.14a1.39,1.39,0,0,1-.07,1.1"/><path class="cls-3" d="M61.86,70.11c-.19.26-.5.07-.63-.27a.9.9,0,0,1,.11-1.09c.2-.26.46-.18.59.16a1.5,1.5,0,0,1-.07,1.2"/><path class="cls-3" d="M61,70.75c-.2.28-.54.06-.68-.3-.25-.65-.17-.79.12-1.17s.49-.2.63.17a1.66,1.66,0,0,1-.07,1.3"/><path class="cls-3" d="M60.2,71.4c-.22.29-.59,0-.74-.35-.27-.72-.18-.82.13-1.24s.53-.22.68.18a1.8,1.8,0,0,1-.07,1.41"/><path class="cls-3" d="M59.37,72c-.24.31-.63,0-.79-.38-.3-.79-.21-.87.14-1.33.23-.31.55-.22.72.2A2,2,0,0,1,59.37,72"/><path class="cls-3" d="M66.78,68.14c-.11.18-.28.16-.37,0a.76.76,0,0,1,0-.69c.1-.18.28-.16.36,0a.79.79,0,0,1,0,.69"/><path class="cls-3" d="M65.87,69c-.13.2-.33.16-.44-.07a.82.82,0,0,1,0-.78c.13-.21.32-.19.42,0a1,1,0,0,1,0,.81"/><path class="cls-3" d="M65,69.91c-.14.23-.37.16-.49-.09a.83.83,0,0,1,.05-.88c.14-.23.35-.2.47,0a1.09,1.09,0,0,1,0,.92"/><path class="cls-3" d="M64.05,70.8c-.16.26-.43.15-.56-.13a.83.83,0,0,1,.06-1c.15-.25.38-.23.51.06a1.34,1.34,0,0,1,0,1"/><path class="cls-3" d="M63.13,71.69c-.17.28-.47.15-.61-.16a.9.9,0,0,1,.06-1.07c.17-.27.43-.24.57.07a1.46,1.46,0,0,1,0,1.16"/><path class="cls-3" d="M62.22,72.58c-.19.3-.52.14-.67-.19a.93.93,0,0,1,.06-1.16c.19-.3.47-.27.62.07a1.63,1.63,0,0,1,0,1.28"/><path class="cls-3" d="M61.31,73.46c-.2.33-.57.15-.74-.21-.3-.67-.22-.79.07-1.26s.51-.29.67.08a1.77,1.77,0,0,1,0,1.39"/><path class="cls-3" d="M60.4,74.35c-.22.35-.62.15-.8-.25-.34-.74-.25-.83.08-1.34s.54-.32.72.08a1.93,1.93,0,0,1,0,1.51"/><path class="cls-3" d="M67.59,69.25c-.1.2-.26.21-.36,0a.78.78,0,0,1,0-.7c.1-.19.27-.19.37,0a.81.81,0,0,1,0,.68"/><path class="cls-3" d="M66.73,70.29c-.12.22-.32.21-.44,0a.85.85,0,0,1,0-.79c.12-.22.31-.23.42,0a1,1,0,0,1,0,.81"/><path class="cls-3" d="M65.86,71.32c-.13.25-.36.22-.49,0a.82.82,0,0,1,0-.88c.14-.25.35-.26.48,0a1.17,1.17,0,0,1,0,.92"/><path class="cls-3" d="M65,72.35c-.15.28-.41.23-.56,0a.87.87,0,0,1,0-1c.15-.28.39-.29.53,0a1.34,1.34,0,0,1,0,1"/><path class="cls-3" d="M64.14,73.38c-.17.31-.47.23-.63,0a.91.91,0,0,1,0-1.07c.16-.31.42-.32.58,0a1.53,1.53,0,0,1,0,1.15"/><path class="cls-3" d="M63.27,74.42c-.18.33-.51.24-.68-.08a.93.93,0,0,1,0-1.16c.18-.34.46-.35.63,0a1.67,1.67,0,0,1,.05,1.28"/><path class="cls-3" d="M62.4,75.45c-.19.36-.56.24-.75-.09a1,1,0,0,1,0-1.27c.18-.35.49-.37.67,0a1.81,1.81,0,0,1,.06,1.39"/><path class="cls-3" d="M61.54,76.48c-.21.39-.61.25-.81-.11a1.05,1.05,0,0,1,0-1.36c.2-.39.53-.4.73,0a2,2,0,0,1,.07,1.5"/><path class="cls-3" d="M68.46,70.24c-.1.21-.26.24-.37.08a.83.83,0,0,1,0-.69c.1-.22.26-.25.37-.08a.82.82,0,0,1,0,.69"/><path class="cls-3" d="M67.51,71.61c-.1.24-.31.25-.44.06a.79.79,0,0,1,0-.8c.11-.25.3-.29.42-.09a1,1,0,0,1,.05.83"/><path class="cls-3" d="M66.56,73c-.12.28-.37.28-.51.06a.85.85,0,0,1,0-.92c.13-.28.34-.32.49-.1a1.18,1.18,0,0,1,.06,1"/><path class="cls-3" d="M65.61,74.33a.3.3,0,0,1-.58,0,.89.89,0,0,1,0-1c.14-.31.39-.36.55-.11a1.32,1.32,0,0,1,.08,1.09"/><path class="cls-3" d="M64.67,75.7a.35.35,0,0,1-.66,0A.92.92,0,0,1,64,74.6c.15-.35.42-.41.6-.13a1.58,1.58,0,0,1,.11,1.23"/><path class="cls-3" d="M63.72,77.06c-.17.39-.54.33-.74,0-.35-.55-.29-.7,0-1.25.17-.38.47-.44.67-.13a1.74,1.74,0,0,1,.12,1.35"/><path class="cls-3" d="M62.77,78.43c-.19.42-.6.34-.81,0-.4-.63-.32-.74-.05-1.35.18-.42.5-.49.72-.16a2,2,0,0,1,.14,1.5"/><path class="cls-3" d="M69.37,71.07c-.09.23-.25.29-.37.14a.79.79,0,0,1,0-.68c.08-.23.24-.29.36-.14a.82.82,0,0,1,.06.68"/><path class="cls-3" d="M68.49,72.59c-.1.26-.3.31-.44.14a.8.8,0,0,1-.07-.8c.1-.26.29-.33.42-.16a1,1,0,0,1,.09.82"/><path class="cls-3" d="M67.61,74.1c-.11.3-.36.34-.52.15a.83.83,0,0,1-.07-.91c.11-.3.32-.38.48-.18a1.15,1.15,0,0,1,.11.94"/><path class="cls-3" d="M66.73,75.61c-.13.35-.42.37-.59.15a.87.87,0,0,1-.09-1c.13-.33.37-.43.54-.21a1.34,1.34,0,0,1,.14,1.07"/><path class="cls-3" d="M65.85,77.13c-.14.38-.47.4-.66.15-.33-.42-.29-.61-.1-1.12s.41-.48.6-.23a1.52,1.52,0,0,1,.16,1.2"/><path class="cls-3" d="M65,78.65a.4.4,0,0,1-.73.14c-.37-.48-.32-.64-.1-1.22.15-.41.44-.52.65-.26A1.65,1.65,0,0,1,65,78.65"/><path class="cls-3" d="M64.09,80.16a.44.44,0,0,1-.81.15c-.43-.55-.36-.68-.12-1.33.17-.45.48-.57.72-.28a1.9,1.9,0,0,1,.21,1.46"/><path class="cls-3" d="M70.3,71.76c-.06.23-.22.32-.34.19a.75.75,0,0,1-.1-.67c.08-.23.23-.32.36-.2a.77.77,0,0,1,.08.68"/><path class="cls-3" d="M69.5,73.42c-.08.27-.28.35-.42.2a.75.75,0,0,1-.11-.78c.08-.27.27-.38.41-.23a1,1,0,0,1,.12.81"/><path class="cls-3" d="M68.69,75.07c-.09.31-.33.39-.49.22a.78.78,0,0,1-.12-.89c.09-.32.3-.43.46-.26a1.06,1.06,0,0,1,.15.93"/><path class="cls-3" d="M67.89,76.72c-.11.35-.39.43-.57.23s-.28-.52-.14-1,.34-.48.53-.29a1.25,1.25,0,0,1,.18,1"/><path class="cls-3" d="M67.09,78.38c-.12.39-.45.46-.65.24s-.31-.55-.15-1.1c.12-.39.38-.54.58-.32a1.47,1.47,0,0,1,.22,1.18"/><path class="cls-3" d="M66.28,80c-.13.43-.5.5-.72.26-.4-.42-.35-.59-.16-1.21.13-.43.41-.59.63-.35a1.59,1.59,0,0,1,.25,1.3"/><path class="cls-3" d="M65.48,81.68c-.14.47-.56.53-.8.28-.45-.48-.38-.62-.18-1.32.15-.47.45-.64.69-.38a1.72,1.72,0,0,1,.29,1.42"/><path class="cls-3" d="M71.28,72.28c-.06.26-.22.37-.34.26a.7.7,0,0,1-.12-.66c.06-.25.21-.36.34-.25a.75.75,0,0,1,.12.65"/><path class="cls-3" d="M70.66,73.81c-.07.29-.26.4-.41.27a.7.7,0,0,1-.13-.74c.07-.28.23-.41.38-.28a.85.85,0,0,1,.16.75"/><path class="cls-3" d="M70,75.34c-.08.32-.31.44-.47.3s-.25-.45-.15-.84.27-.46.43-.33a1,1,0,0,1,.19.87"/><path class="cls-3" d="M69.42,76.86c-.09.36-.35.48-.54.32s-.27-.47-.17-.92.31-.52.49-.36a1.16,1.16,0,0,1,.22,1"/><path class="cls-3" d="M68.79,78.39c-.09.39-.39.51-.59.34s-.31-.49-.19-1,.34-.57.53-.4a1.23,1.23,0,0,1,.25,1.07"/><path class="cls-3" d="M68.17,79.92c-.1.42-.44.55-.65.36-.38-.32-.35-.52-.21-1.1s.36-.62.58-.44a1.39,1.39,0,0,1,.28,1.18"/><path class="cls-3" d="M67.56,81.44c-.12.46-.49.59-.73.39-.43-.36-.38-.54-.22-1.19.12-.46.39-.67.63-.48a1.58,1.58,0,0,1,.32,1.28"/><path class="cls-3" d="M66.93,83c-.12.49-.53.62-.78.41-.47-.41-.41-.57-.24-1.29.12-.49.42-.71.67-.5A1.66,1.66,0,0,1,66.93,83"/><path class="cls-3" d="M72.27,72.65c0,.26-.2.4-.33.31a.66.66,0,0,1-.15-.62c0-.27.19-.41.33-.32a.67.67,0,0,1,.15.63"/><path class="cls-3" d="M71.72,74.27c-.06.3-.23.45-.39.34s-.23-.38-.17-.71.22-.45.37-.36a.79.79,0,0,1,.19.73"/><path class="cls-3" d="M71.17,75.9c-.06.33-.28.48-.45.37s-.26-.41-.19-.8.25-.51.42-.4a.91.91,0,0,1,.22.83"/><path class="cls-3" d="M70.63,77.52c-.08.37-.33.53-.51.41s-.31-.43-.22-.9.28-.55.47-.43a1,1,0,0,1,.26.92"/><path class="cls-3" d="M70.08,79.14c-.08.41-.37.58-.58.44s-.33-.44-.23-1,.31-.62.51-.47a1.09,1.09,0,0,1,.3,1"/><path class="cls-3" d="M69.53,80.76c-.08.45-.41.63-.63.48-.39-.26-.37-.46-.26-1.07.09-.44.34-.67.56-.52a1.27,1.27,0,0,1,.33,1.11"/><path class="cls-3" d="M69,82.39c-.09.48-.46.67-.7.51-.44-.3-.4-.49-.28-1.16.09-.48.36-.73.61-.57A1.41,1.41,0,0,1,69,82.39"/><path class="cls-3" d="M68.44,84c-.1.52-.5.71-.76.54-.49-.33-.44-.5-.3-1.24.1-.52.39-.79.65-.61A1.48,1.48,0,0,1,68.44,84"/><path class="cls-3" d="M73.27,72.86c0,.27-.18.43-.31.36s-.21-.34-.18-.6.17-.43.31-.37a.62.62,0,0,1,.18.61"/><path class="cls-3" d="M72.86,74.35c0,.31-.21.48-.36.4s-.25-.35-.21-.68.2-.48.35-.4.26.38.22.68"/><path class="cls-3" d="M72.45,75.85c0,.33-.25.52-.41.43s-.28-.36-.23-.75.22-.53.39-.45a.81.81,0,0,1,.25.77"/><path class="cls-3" d="M72,77.34c-.05.37-.29.57-.47.47s-.31-.37-.24-.82.24-.59.42-.49a.88.88,0,0,1,.29.84"/><path class="cls-3" d="M71.63,78.84c0,.39-.32.6-.52.51s-.34-.39-.27-.9.26-.64.47-.54a1,1,0,0,1,.32.93"/><path class="cls-3" d="M71.22,80.33c-.06.43-.35.65-.57.54-.37-.17-.37-.39-.29-1,.06-.42.28-.68.5-.58a1.08,1.08,0,0,1,.36,1"/><path class="cls-3" d="M70.81,81.83c-.06.45-.39.69-.62.58-.42-.21-.4-.41-.31-1,.06-.46.3-.74.53-.62a1.16,1.16,0,0,1,.4,1.09"/><path class="cls-3" d="M70.4,83.32c-.07.49-.43.74-.68.62-.46-.23-.43-.42-.33-1.12.07-.49.32-.79.58-.67a1.26,1.26,0,0,1,.43,1.17"/><path class="cls-3" d="M70,84.81c-.07.52-.47.79-.73.66-.5-.25-.46-.43-.35-1.19.07-.53.34-.85.61-.71A1.34,1.34,0,0,1,70,84.81"/><path class="cls-3" d="M74.27,72.9c0,.27-.14.46-.29.42s-.23-.3-.21-.58.16-.46.3-.41.23.3.2.57"/><path class="cls-3" d="M73.94,74.46c0,.3-.19.51-.34.46s-.27-.31-.24-.65.18-.51.33-.46.27.34.25.65"/><path class="cls-3" d="M73.6,76c0,.34-.22.56-.39.51s-.29-.31-.26-.71.19-.57.36-.52.32.38.29.72"/><path class="cls-3" d="M73.26,77.57c0,.37-.25.61-.44.55s-.32-.32-.28-.78.21-.63.4-.56.36.42.32.79"/><path class="cls-3" d="M72.92,79.12c0,.41-.29.67-.49.6s-.35-.33-.31-.85.23-.68.44-.61.4.46.36.86"/><path class="cls-3" d="M72.59,80.68c0,.44-.33.71-.55.64-.38-.12-.38-.33-.33-.92,0-.43.25-.73.47-.66a1,1,0,0,1,.41.94"/><path class="cls-3" d="M72.25,82.24c0,.47-.36.76-.6.68-.42-.13-.41-.34-.35-1,0-.46.26-.78.5-.71a1.06,1.06,0,0,1,.45,1"/><path class="cls-3" d="M71.91,83.79c0,.51-.39.81-.64.74-.48-.15-.45-.35-.39-1.07.05-.5.29-.84.55-.75a1.14,1.14,0,0,1,.48,1.08"/><path class="cls-3" d="M71.57,85.35c0,.54-.43.86-.69.78-.52-.17-.48-.36-.41-1.13,0-.54.3-.9.58-.82a1.22,1.22,0,0,1,.52,1.17"/><path class="cls-3" d="M75.28,72.78c0,.28-.13.48-.27.46s-.25-.26-.24-.54.14-.48.28-.46.24.27.23.54"/><path class="cls-3" d="M75.05,74.21c0,.3-.16.53-.32.5s-.27-.26-.26-.59.15-.54.31-.51.28.3.27.6"/><path class="cls-3" d="M74.81,75.64c0,.33-.18.58-.36.55s-.29-.26-.28-.65.16-.59.33-.56.32.32.31.66"/><path class="cls-3" d="M74.58,77.07c0,.36-.22.62-.4.6s-.33-.27-.31-.72.17-.63.36-.6.36.35.35.72"/><path class="cls-3" d="M74.34,78.49c0,.4-.24.68-.44.65s-.35-.26-.33-.77.18-.69.39-.65.4.38.38.77"/><path class="cls-3" d="M74.11,79.92c0,.43-.28.73-.49.7s-.38-.27-.35-.83.2-.74.42-.71.44.42.42.84"/><path class="cls-3" d="M73.87,81.35c0,.46-.3.78-.52.74-.4-.06-.41-.26-.39-.88,0-.45.22-.79.45-.76s.48.45.46.9"/><path class="cls-3" d="M73.64,82.78c0,.49-.33.83-.57.79-.44-.07-.44-.27-.41-.94,0-.49.23-.85.48-.81s.52.47.5,1"/><path class="cls-3" d="M73.4,84.21c0,.51-.35.88-.61.83-.48-.07-.46-.27-.43-1,0-.51.24-.89.51-.85s.55.51.53,1"/><path class="cls-3" d="M73.17,85.63c0,.55-.38.94-.66.89-.52-.08-.49-.27-.46-1.06,0-.54.27-.94.54-.9s.6.53.58,1.07"/></g><path class="cls-4" d="M64.65,14.56C73.67,14.62,81,30.91,81,51S73.67,87.38,64.65,87.44h.08c12.19,0,24.12-16.32,24.12-36.45S76.92,14.56,64.73,14.56h-.08"/><path class="cls-4" d="M81,51c0,20.13-7.34,36.45-16.4,36.45S48.2,71.13,48.2,51s7.34-36.45,16.39-36.45S81,30.87,81,51Z"/><path class="cls-4" d="M25.09,51c0,20.13-2.67,36.44-6,36.44s-6-16.31-6-36.44,2.67-36.45,6-36.45S25.09,30.87,25.09,51Z"/><path class="cls-4" d="M19.12,14.55c-1.5,14.6,14,13.75,14,36.45s-15.49,21.84-14,36.44"/><polyline class="cls-4" points="66.44 43.09 74.71 51.36 66.44 59.62"/><line class="cls-4" x1="39.38" y1="51.36" x2="74.71" y2="51.36"/></g></g></svg>