<svg xmlns="http://www.w3.org/2000/svg" viewBox="0 0 102 102"><defs><style>.cls-1,.cls-3{fill:none;}.cls-2,.cls-4{fill:#4d4d4d;stroke-miterlimit:10;}.cls-2,.cls-3,.cls-4{stroke:#4d4d4d;}.cls-2{stroke-width:0.31px;}.cls-3{stroke-linecap:round;stroke-linejoin:round;stroke-width:3.15px;}.cls-4{stroke-width:0.16px;}</style></defs><title>アセット 3</title><g id="レイヤー_2" data-name="レイヤー 2"><g id="レイヤー_3" data-name="レイヤー 3"><rect class="cls-1" width="102" height="102"/><path class="cls-2" d="M39.38,46.68l-3.12-6.43H25.52l-3.18,6.43H18.86L29.8,24.88h2.41l10.55,21.8ZM31,29.42l-4,8h8Z"/><path class="cls-2" d="M45.17,46.75c-1,0-1.54-.31-1.54-.93v-.94c0-.62.51-.93,1.54-.93s1.54.31,1.54.93v.94C46.71,46.44,46.2,46.75,45.17,46.75Z"/><path class="cls-2" d="M68.44,43.92c-2.22,2-5.21,3-9,3s-6.79-1-9-3a10.38,10.38,0,0,1-3.3-8.12,10,10,0,0,1,3.38-8q3.24-2.8,8.9-2.8c3.78,0,6.75.93,8.94,2.8a10,10,0,0,1,3.38,8A10.35,10.35,0,0,1,68.44,43.92ZM66.27,29.85a10.16,10.16,0,0,0-6.82-2.07c-2.93,0-5.2.69-6.78,2.09a7.46,7.46,0,0,0-2.38,5.94,7.84,7.84,0,0,0,2.41,6.08,9.6,9.6,0,0,0,6.75,2.22q4.41,0,6.82-2.2a7.84,7.84,0,0,0,2.41-6.1A7.42,7.42,0,0,0,66.27,29.85Z"/><path class="cls-2" d="M73.74,46.75c-1,0-1.55-.31-1.55-.93v-.94c0-.62.52-.93,1.55-.93s1.54.31,1.54.93v.94C75.28,46.44,74.76,46.75,73.74,46.75Z"/><path class="cls-2" d="M77.85,46.68V24.88h3.08v21.8Z"/><rect class="cls-3" x="13.14" y="13.15" width="75.71" height="75.71"/><path class="cls-4" d="M35.22,60.66a5.48,5.48,0,0,1-2.15,1.59l.27,0h2.18v1.48H33.34a3.26,3.26,0,0,1-2.41-.94c-.31,0-.63,0-.95,0a6.71,6.71,0,0,1-4.69-1.57A5.52,5.52,0,0,1,23.57,57a5.24,5.24,0,0,1,1.76-4.22A6.86,6.86,0,0,1,30,51.31a6.93,6.93,0,0,1,4.69,1.49A5.23,5.23,0,0,1,36.41,57,5.72,5.72,0,0,1,35.22,60.66Zm-1.68-6.78A5.27,5.27,0,0,0,30,52.78a5.23,5.23,0,0,0-3.54,1.1A4,4,0,0,0,25.19,57,4.36,4.36,0,0,0,26,59.65a3.05,3.05,0,0,1,2.65-1.24,3.36,3.36,0,0,1,2.15.72,2.48,2.48,0,0,1,1,2v0a3.89,3.89,0,0,0,3-4.13A3.88,3.88,0,0,0,33.54,53.88ZM30.2,61.09a1.06,1.06,0,0,0-.45-.88,1.79,1.79,0,0,0-1.13-.34,1.42,1.42,0,0,0-1.48.81,5.46,5.46,0,0,0,2.84.7h.23C30.2,61.28,30.2,61.18,30.2,61.09Z"/><path class="cls-4" d="M44.32,62.67V62.1a4.6,4.6,0,0,1-2.63.72A4.39,4.39,0,0,1,39,62.05a2.81,2.81,0,0,1-1.11-2.38V54.45h1.61v5.2c0,1.16.75,1.74,2.24,1.74,1.75,0,2.63-.84,2.63-2.53V54.45h1.61v8.22Z"/><path class="cls-4" d="M54.75,62.65v-.77a4.68,4.68,0,0,1-3,.94,4.47,4.47,0,0,1-3.35-1.26,4.05,4.05,0,0,1-1.16-3,4.17,4.17,0,0,1,1.17-3.06,4.61,4.61,0,0,1,3.41-1.25,4.77,4.77,0,0,1,3,.9v-.87h1.61v8.37ZM54,56.44a3.12,3.12,0,0,0-2.27-.77,2.84,2.84,0,0,0-2.17.84,2.93,2.93,0,0,0-.72,2.05,2.78,2.78,0,0,0,.72,2,2.83,2.83,0,0,0,2.17.82,3,3,0,0,0,2.22-.8,2.72,2.72,0,0,0,.83-2A2.85,2.85,0,0,0,54,56.44Z"/><path class="cls-4" d="M58.15,62.64V51.26h1.61V62.64Z"/><path class="cls-4" d="M62.25,53.56a.81.81,0,0,1-.77-.61V51.71a.87.87,0,0,1,.77-.6,1.2,1.2,0,0,1,.84.52v1.42A1.18,1.18,0,0,1,62.25,53.56Zm-.77,9.08V54.11h1.61v8.53Z"/><path class="cls-4" d="M67.32,56.07v6.57H65.74l0-6.57H64V54.61H65.7V52.33h1.62v2.28H69v1.46Z"/><path class="cls-4" d="M73.65,65.64A5.33,5.33,0,0,1,71,65a3.31,3.31,0,0,1-1.46-2.89h1.6a2.13,2.13,0,0,0,.73,1.61,3.07,3.07,0,0,0,1.82.42c1.72,0,2.63-.6,2.73-1.79a4.52,4.52,0,0,1-2.62.74,4.4,4.4,0,0,1-2.71-.79A3,3,0,0,1,70,59.85v-5.4h1.61v5.39c0,1.2.75,1.81,2.23,1.81A2.33,2.33,0,0,0,76.44,59V54.45h1.61v7.67a3.11,3.11,0,0,1-1.15,2.63A5.15,5.15,0,0,1,73.65,65.64Z"/><path class="cls-4" d="M22.29,77.59a7.92,7.92,0,0,1-3.73-.77,3.37,3.37,0,0,1-1.85-3.16v-.74h1.63v.69q0,2.52,4,2.52a6,6,0,0,0,2.35-.4,1.48,1.48,0,0,0,1.08-1.36,1.24,1.24,0,0,0-.34-1,3.09,3.09,0,0,0-1.19-.54c-.34-.09-1.13-.25-2.37-.5a14.9,14.9,0,0,1-3-.82,2.64,2.64,0,0,1-1.73-2.49Q17.1,66,22,66c3.38,0,5.09,1.39,5.13,4.15H25.53q-.12-1.78-1.05-2.25A5.55,5.55,0,0,0,22,67.43c-2.18,0-3.26.55-3.26,1.63a1.24,1.24,0,0,0,.77,1.16,9.71,9.71,0,0,0,2.23.57,14.87,14.87,0,0,1,4.2,1.12,2.77,2.77,0,0,1-.37,5A7.36,7.36,0,0,1,22.29,77.59Z"/><path class="cls-4" d="M32.57,80.48a5.34,5.34,0,0,1-2.66-.61A3.29,3.29,0,0,1,28.45,77h1.6a2.16,2.16,0,0,0,.74,1.62A3,3,0,0,0,32.6,79c1.72,0,2.64-.6,2.74-1.8a4.54,4.54,0,0,1-2.62.74A4.35,4.35,0,0,1,30,77.17a3,3,0,0,1-1.13-2.48V69.28h1.61v5.39c0,1.21.75,1.81,2.24,1.81a2.33,2.33,0,0,0,2.63-2.64V69.28H37V77a3.14,3.14,0,0,1-1.15,2.64A5.18,5.18,0,0,1,32.57,80.48Z"/><path class="cls-4" d="M44.89,77.2a5.14,5.14,0,0,1-2.41.49c-2.74,0-4.12-1.27-4.12-3.79H40a2.41,2.41,0,0,0,.55,1.82,2.86,2.86,0,0,0,1.93.51q2.1,0,2.1-1.08c0-.43-.46-.74-1.37-.94L41.54,74q-2.82-.41-2.82-2.37a2.16,2.16,0,0,1,1.17-2,4.4,4.4,0,0,1,2.3-.59c2.65,0,4,1.15,4,3.46H44.53A2,2,0,0,0,44,71a2.67,2.67,0,0,0-1.75-.44,2.82,2.82,0,0,0-1.38.3.91.91,0,0,0-.54.79c0,.42.44.7,1.33.84.29.06.88.16,1.76.3,1.86.3,2.79,1.09,2.79,2.4A2.17,2.17,0,0,1,44.89,77.2Z"/><path class="cls-4" d="M50.28,70.91v6.56H48.7l0-6.56H47V69.45h1.68V67.16h1.61v2.29H52v1.46Z"/><path class="cls-4" d="M54,74c.19,1.48,1.17,2.22,2.95,2.22a2.88,2.88,0,0,0,2.94-1.83h1.66a4.45,4.45,0,0,1-2,2.69,5.73,5.73,0,0,1-2.63.57,4.64,4.64,0,0,1-3.43-1.2,4.56,4.56,0,0,1,.12-6.16A4.68,4.68,0,0,1,57,69.08a5,5,0,0,1,3.36,1.09,3.66,3.66,0,0,1,1.28,2.92V74Zm5.15-2.78A3,3,0,0,0,57,70.5a3.07,3.07,0,0,0-2.16.73A2.52,2.52,0,0,0,54,72.59h5.84A2.44,2.44,0,0,0,59.14,71.23Z"/><path class="cls-4" d="M74.23,77.47V72.22a1.75,1.75,0,0,0-.43-1.31,2,2,0,0,0-1.39-.41,2.46,2.46,0,0,0-1.67.53,1.76,1.76,0,0,0-.59,1.39v5H68.54V72.22a1.67,1.67,0,0,0-.45-1.31,2.08,2.08,0,0,0-1.42-.41,2.1,2.1,0,0,0-1.68.73,2.47,2.47,0,0,0-.55,1.67v4.57H62.83V69.25h1.61v.5a4.16,4.16,0,0,1,2.4-.67,3.34,3.34,0,0,1,2.65,1.06,3.72,3.72,0,0,1,2.89-1.06,3.84,3.84,0,0,1,2.56.76,2.76,2.76,0,0,1,.9,2.23v5.4Z"/><path class="cls-4" d="M83.73,77.2a5.14,5.14,0,0,1-2.41.49c-2.74,0-4.12-1.27-4.12-3.79h1.65a2.41,2.41,0,0,0,.55,1.82,2.86,2.86,0,0,0,1.93.51q2.1,0,2.1-1.08c0-.43-.46-.74-1.37-.94L80.38,74q-2.82-.41-2.82-2.37a2.16,2.16,0,0,1,1.17-2,4.4,4.4,0,0,1,2.3-.59c2.65,0,4,1.15,4,3.46H83.37a2,2,0,0,0-.5-1.56,2.67,2.67,0,0,0-1.75-.44,2.82,2.82,0,0,0-1.38.3.91.91,0,0,0-.54.79c0,.42.44.7,1.33.84.29.06.88.16,1.76.3,1.86.3,2.79,1.09,2.79,2.4A2.17,2.17,0,0,1,83.73,77.2Z"/></g></g></svg>