<svg xmlns="http://www.w3.org/2000/svg" viewBox="0 0 102 102"><defs><style>.cls-1{fill:none;}.cls-2{fill:#4d4d4d;}</style></defs><title>アセット 1</title><g id="レイヤー_2" data-name="レイヤー 2"><g id="レイヤー_3" data-name="レイヤー 3"><rect class="cls-1" width="102" height="102"/><path class="cls-2" d="M29.65,63.84a1.64,1.64,0,0,1-1.41-.78,1.66,1.66,0,0,1,.53-2.29l.42-.25a.31.31,0,0,0,.14-.31A.3.3,0,0,0,29.1,60,90.82,90.82,0,0,0,16.52,57.8,1.67,1.67,0,0,1,15,56a1.69,1.69,0,0,1,1.7-1.49h.13A96.76,96.76,0,0,1,30,56.74h.08a.3.3,0,0,0,.25-.12.32.32,0,0,0,0-.35l-.22-.38a1.67,1.67,0,0,1,.54-2.29,1.72,1.72,0,0,1,.87-.25,1.65,1.65,0,0,1,1.42.8c1,1.56,1.86,3.13,2.67,4.66l.12.3.06.32v.26a1.72,1.72,0,0,1-.29.83,1.54,1.54,0,0,1-.36.39L35,61c-1.52.82-3,1.67-4.45,2.58A1.63,1.63,0,0,1,29.65,63.84Z"/><path class="cls-2" d="M56.9,75.75a1.66,1.66,0,0,1-1.59-1.19,1.62,1.62,0,0,1,.13-1.26,1.64,1.64,0,0,1,1-.8l.42-.13a.32.32,0,0,0,.22-.27.3.3,0,0,0-.16-.31c-1.32-.69-2.61-1.4-3.88-2.09-2.5-1.37-5.05-2.78-7.63-4a1.67,1.67,0,0,1-.87-.92,1.69,1.69,0,0,1,0-1.27,1.67,1.67,0,0,1,1.52-1,1.57,1.57,0,0,1,.68.15c2.71,1.22,5.32,2.66,7.85,4.05,1.24.68,2.49,1.37,3.76,2a.28.28,0,0,0,.15,0,.32.32,0,0,0,.19-.07.32.32,0,0,0,.11-.33L58.69,68a1.59,1.59,0,0,1,.14-1.26,1.65,1.65,0,0,1,1-.8,1.68,1.68,0,0,1,.45-.06,1.65,1.65,0,0,1,1.61,1.2c.52,1.79,1,3.29,1.57,4.71,0,0,0,0,0,0a1.84,1.84,0,0,1,.08.3c0,.15,0,.24,0,.32v.11a1.87,1.87,0,0,1,0,.25,1.43,1.43,0,0,1-.09.27,1.81,1.81,0,0,1-.24.37,1.67,1.67,0,0,1-.38.36,1.53,1.53,0,0,1-.29.14c-1.55.62-3.24,1.19-5.15,1.76A1.84,1.84,0,0,1,56.9,75.75Z"/><path class="cls-2" d="M74.38,76.29a1.67,1.67,0,0,1-1.64-1.41,1.64,1.64,0,0,1,.31-1.23A1.59,1.59,0,0,1,74.13,73c4.79-.75,7.68-4.38,9-6.48a.31.31,0,0,0-.27-.48h0l-.27.06a2.05,2.05,0,0,1-.34.07,1.24,1.24,0,0,1-.27,0,1.66,1.66,0,0,1-1.62-1.42,1.64,1.64,0,0,1,.3-1.23,1.67,1.67,0,0,1,1.09-.66,11.68,11.68,0,0,0,4-1.42,1.78,1.78,0,0,1,.84-.23,1.76,1.76,0,0,1,.45.07l.1,0a1.21,1.21,0,0,1,.2.09l.11.06.16.11.1.1.14.12L88,62l.06.1a18,18,0,0,1,2,5.66,1.67,1.67,0,0,1-1.33,1.94l-.31,0a1.65,1.65,0,0,1-1.63-1.36L86.69,68a.3.3,0,0,0-.25-.24h0a.33.33,0,0,0-.27.15c-2.75,4.6-6.93,7.64-11.48,8.35A1.14,1.14,0,0,1,74.38,76.29Z"/><path class="cls-2" d="M85,52.1a1.66,1.66,0,0,1-1.47-.88,44.93,44.93,0,0,0-7.47-10,.31.31,0,0,0-.22-.09.25.25,0,0,0-.12,0,.35.35,0,0,0-.2.28v.49a1.67,1.67,0,0,1-3.33-.09c0-1.87,0-3.5-.07-5,0-.05,0-.09,0-.13a1.9,1.9,0,0,1,.06-.42,1.12,1.12,0,0,1,.14-.35,1.38,1.38,0,0,1,.21-.31,2,2,0,0,1,.24-.22l.13-.08.15-.09.3-.11a.41.41,0,0,1,.16,0l.12,0C74.82,35,76.06,35,77.41,35l1.65,0a1.67,1.67,0,0,1,1.63,1.69A1.67,1.67,0,0,1,79,38.29h-.49a.31.31,0,0,0-.29.19.31.31,0,0,0,.07.34,48.4,48.4,0,0,1,8.09,10.83,1.66,1.66,0,0,1-.68,2.25A1.65,1.65,0,0,1,85,52.1Z"/><path class="cls-2" d="M63.42,30.76a1.7,1.7,0,0,1-.88-.25,87.75,87.75,0,0,0-11.32-5.89.28.28,0,0,0-.13,0,.29.29,0,0,0-.21.09.33.33,0,0,0-.08.34l.18.45a1.65,1.65,0,0,1-1,2.14,1.44,1.44,0,0,1-.59.11,1.67,1.67,0,0,1-1.55-1.07c-.65-1.7-1.35-3.32-2-4.68,0-.16-.08-.24-.1-.32l0-.15c0-.1,0-.13,0-.17a.71.71,0,0,1,0-.14v-.11a1.52,1.52,0,0,1,.08-.35,1.45,1.45,0,0,1,.16-.33l.19-.26.11-.09.1-.09a1.69,1.69,0,0,1,.33-.19c1.95-.87,3.47-1.51,4.92-2.07a1.52,1.52,0,0,1,.6-.11,1.66,1.66,0,0,1,.6,3.21l-.41.17a.29.29,0,0,0-.2.28.3.3,0,0,0,.19.29,91.6,91.6,0,0,1,11.81,6.15,1.67,1.67,0,0,1,.75,1A1.69,1.69,0,0,1,64.83,30,1.65,1.65,0,0,1,63.42,30.76Z"/><path class="cls-2" d="M20.85,20.28a1.67,1.67,0,0,1-1.34-.67c-.93-1.25-2-2.55-3.15-4l-.06-.09a1.84,1.84,0,0,1-.12-.18.3.3,0,0,1,0-.1l-.05-.11a1,1,0,0,1-.06-.21l0-.12a1.28,1.28,0,0,1,0-.33v-.14a1.11,1.11,0,0,1,.05-.25,3.24,3.24,0,0,1,.13-.31,1.53,1.53,0,0,1,.4-.49c1.5-1.26,2.87-2.35,4.17-3.33a1.71,1.71,0,0,1,1-.33,1.66,1.66,0,0,1,1,3l-.34.27a.3.3,0,0,0,.15.55,121.24,121.24,0,0,1,13,2.45,1.66,1.66,0,0,1-.4,3.27,1.75,1.75,0,0,1-.4,0,116.55,116.55,0,0,0-12.61-2.38h0a.3.3,0,0,0-.27.16.29.29,0,0,0,0,.34l.3.39a1.71,1.71,0,0,1,.31,1.24A1.66,1.66,0,0,1,21.84,20,1.68,1.68,0,0,1,20.85,20.28Z"/><path class="cls-2" d="M71.46,65.9c-3.2,0-7.17-2.19-11.78-4.73C50.63,56.17,37,48.63,15,47V43.64c22.92,1.73,37.52,9.79,46.27,14.61,5.38,3,8.1,4.3,9.95,4.3,1.26,0,2.18-.61,3.05-2s.55-3.07-.73-5.21C66,42.64,35.41,29.36,15,26.72V23.26C37.94,25.73,68.83,41,76.41,53.58c2.46,4.09,1.75,7,.72,8.65C75.61,64.74,73.81,65.9,71.46,65.9Z"/><path class="cls-2" d="M71.34,92.79A100.06,100.06,0,0,0,14.91,69.07V65.74A104.52,104.52,0,0,1,76.36,92.79Z"/></g></g></svg>