<svg xmlns="http://www.w3.org/2000/svg" viewBox="0 0 102 102"><defs><style>.cls-1,.cls-2{fill:none;}.cls-2{stroke:#4d4d4d;stroke-linecap:round;stroke-linejoin:round;stroke-width:3.34px;}</style></defs><title>アセット 5</title><g id="レイヤー_2" data-name="レイヤー 2"><g id="レイヤー_3" data-name="レイヤー 3"><rect class="cls-1" width="102" height="102"/><path class="cls-2" d="M82.54,74.4c0-14.34-14.12-26-31.55-26s-31.54,11.62-31.54,26"/><path class="cls-2" d="M51,87.78c-17.42,0-31.54-6-31.54-13.38S33.57,61,51,61c2.34,0,4.6.11,6.79.31C71.94,62.65,82.54,68,82.54,74.4,82.54,81.79,68.42,87.78,51,87.78Z"/><polyline class="cls-2" points="50.34 28.66 61.28 30 59.94 40.95"/><polyline class="cls-2" points="61.28 30 44.29 43.28 17.31 23.89"/><path class="cls-2" d="M66.35,20.32c-.44,1.06-2.58,1.77-2.58,2.85S65.93,25,66.35,26s-.6,3.06.19,3.85,2.78-.26,3.84.18,1.77,2.59,2.85,2.59,1.83-2.17,2.85-2.59,3,.61,3.84-.18-.25-2.79.19-3.85,2.59-1.77,2.59-2.85-2.17-1.82-2.59-2.84.6-3.05-.19-3.85-2.79.26-3.84-.18-1.77-2.59-2.85-2.59-1.83,2.17-2.85,2.59-3-.61-3.85.18S66.79,19.26,66.35,20.32Z"/></g></g></svg>