<svg xmlns="http://www.w3.org/2000/svg" viewBox="0 0 102 102"><defs><style>.cls-1,.cls-2{fill:none;}.cls-2,.cls-3,.cls-4,.cls-5{stroke:#4d4d4d;}.cls-2{stroke-linecap:round;stroke-linejoin:round;stroke-width:3.34px;}.cls-3,.cls-4,.cls-5{fill:#4d4d4d;stroke-miterlimit:10;}.cls-3{stroke-width:0.73px;}.cls-4{stroke-width:1.45px;}.cls-5{stroke-width:0.14px;}</style></defs><title>アセット 6</title><g id="レイヤー_2" data-name="レイヤー 2"><g id="レイヤー_3" data-name="レイヤー 3"><rect class="cls-1" width="102" height="102"/><line class="cls-2" x1="38.55" y1="18.93" x2="38.55" y2="13.78"/><line class="cls-2" x1="20.25" y1="21.35" x2="23.9" y2="25.01"/><line class="cls-2" x1="17.83" y1="39.65" x2="12.67" y2="39.65"/><line class="cls-2" x1="53.15" y1="25.04" x2="56.84" y2="21.35"/><line class="cls-2" x1="23.94" y1="54.25" x2="20.25" y2="57.93"/><path class="cls-2" d="M51.36,36A13.35,13.35,0,1,0,34.85,52.47"/><line class="cls-2" x1="87.12" y1="13.78" x2="12.67" y2="88.22"/><path class="cls-3" d="M61.32,63.29a4.19,4.19,0,0,1-2.65.7c-2.41,0-3.62-1-3.62-3.11V56h1.12v4.84a2,2,0,0,0,.59,1.59,3.82,3.82,0,0,0,3.83,0,1.89,1.89,0,0,0,.59-1.54V56h1.11v4.87A2.87,2.87,0,0,1,61.32,63.29Z"/><path class="cls-3" d="M68.9,63.91h-.83L64.27,56h1.19l3,6.24L71.41,56h1.2Z"/><path class="cls-4" d="M73.83,60.18V60h3.85v.23Z"/><path class="cls-3" d="M86.42,63.45a4.49,4.49,0,0,1-2.16.46h-4V56h4.18a3.66,3.66,0,0,1,2,.49,1.88,1.88,0,0,1,.93,1.7,1.77,1.77,0,0,1-.91,1.53,1.91,1.91,0,0,1,1.17,1.85A2,2,0,0,1,86.42,63.45Zm-.73-6.11a2.58,2.58,0,0,0-1.3-.29h-3v2.27h3A2.67,2.67,0,0,0,85.69,59a.94.94,0,0,0,.5-.85A.92.92,0,0,0,85.69,57.34Zm.19,3.31a3.16,3.16,0,0,0-1.52-.31h-3V62.9H84.4a2.85,2.85,0,0,0,1.44-.31,1.06,1.06,0,0,0,.62-1A1,1,0,0,0,85.88,60.65Z"/><path class="cls-5" d="M53.52,75.87v6.2a5.25,5.25,0,0,1-2.34,4.56A8.59,8.59,0,0,1,46,88.11a8.31,8.31,0,0,1-5.15-1.51c-1.46-1.12-2.19-3-2.19-5.56h2.64q0,2.76,1.29,3.75a5.57,5.57,0,0,0,3.44,1,5.44,5.44,0,0,0,3.43-1A3.37,3.37,0,0,0,50.79,82v-1.7a8.53,8.53,0,0,1-4.67,1.17A8.28,8.28,0,0,1,41,80a5.36,5.36,0,0,1-2.2-4.56A5.42,5.42,0,0,1,41,70.81a8.46,8.46,0,0,1,5.18-1.53,8.3,8.3,0,0,1,5.14,1.53,5.47,5.47,0,0,1,2.22,4.59v.33Zm-3.91-3.25a5.49,5.49,0,0,0-3.46-1,5.54,5.54,0,0,0-3.45,1,3.67,3.67,0,0,0,0,5.57,5.54,5.54,0,0,0,3.45,1,5.49,5.49,0,0,0,3.46-1,3.61,3.61,0,0,0,0-5.53Z"/><path class="cls-5" d="M70.92,86.36A8.88,8.88,0,0,1,65.38,88a9.43,9.43,0,0,1-5.58-1.48q-2.37-1.67-2.37-5.89H60.1c0,2,.46,3.3,1.39,4a6.7,6.7,0,0,0,3.92,1,6.1,6.1,0,0,0,3.81-1.07,3.62,3.62,0,0,0,1.39-3.05,3.57,3.57,0,0,0-1.48-3.06,6.59,6.59,0,0,0-3.94-1.08,5.58,5.58,0,0,0-4.84,2.44H58l.47-10h14v2.42H61.08l-.2,3.78a8.86,8.86,0,0,1,4.42-1,9.06,9.06,0,0,1,5.56,1.64,5.72,5.72,0,0,1,2.42,4.89A5.89,5.89,0,0,1,70.92,86.36Z"/><path class="cls-5" d="M80.12,81.42a3.17,3.17,0,0,1-2.57-1,4.14,4.14,0,0,1-.82-2.75q0-3.87,3.41-3.87t3.43,3.87a4,4,0,0,1-.86,2.75A3.2,3.2,0,0,1,80.12,81.42Zm-.26,5.52H77.51L88.12,73.38h2.33Zm.26-11.45c-1,0-1.46.71-1.46,2.14s.49,2.05,1.48,2.05,1.49-.68,1.49-2.05S81.13,75.49,80.12,75.49ZM87.5,87.28a3.19,3.19,0,0,1-2.59-1,4.16,4.16,0,0,1-.82-2.77q0-3.89,3.43-3.89t3.41,3.89a4.11,4.11,0,0,1-.84,2.77A3.2,3.2,0,0,1,87.5,87.28Zm0-5.94c-1,0-1.48.71-1.48,2.13s.5,2.08,1.5,2.08S89,84.85,89,83.47,88.5,81.34,87.5,81.34Z"/></g></g></svg>